<?xml version="1.0" encoding="UTF-8" standalone="no"?>
<svg
   width="256"
   height="256"
   version="1.1"
   id="svg229"
   sodipodi:docname="lili.svg"
   inkscape:version="1.4 (e7c3feb1, 2024-10-09)"
   xmlns:inkscape="http://www.inkscape.org/namespaces/inkscape"
   xmlns:sodipodi="http://sodipodi.sourceforge.net/DTD/sodipodi-0.dtd"
   xmlns="http://www.w3.org/2000/svg"
   xmlns:svg="http://www.w3.org/2000/svg">
  <sodipodi:namedview
     id="namedview229"
     pagecolor="#ffffff"
     bordercolor="#000000"
     borderopacity="0.25"
     inkscape:showpageshadow="2"
     inkscape:pageopacity="0.0"
     inkscape:pagecheckerboard="0"
     inkscape:deskcolor="#d1d1d1"
     inkscape:zoom="2.0965094"
     inkscape:cx="111.13711"
     inkscape:cy="108.27521"
     inkscape:window-width="1680"
     inkscape:window-height="997"
     inkscape:window-x="0"
     inkscape:window-y="25"
     inkscape:window-maximized="1"
     inkscape:current-layer="svg229" />
  <defs
     id="defs126">
    <linearGradient
       id="gradient_0"
       gradientUnits="userSpaceOnUse"
       x1="169.48276"
       y1="661.05927"
       x2="171.75183"
       y2="677.6568">
      <stop
         offset="0"
         stop-color="#4F242E"
         id="stop125" />
      <stop
         offset="1"
         stop-color="#7B2F3E"
         id="stop126" />
    </linearGradient>
  </defs>
  <defs
     id="defs133">
    <linearGradient
       id="gradient_1"
       gradientUnits="userSpaceOnUse"
       x1="240.46307"
       y1="685.60437"
       x2="289.88599"
       y2="684.29651">
      <stop
         offset="0"
         stop-color="#6E2B38"
         id="stop132" />
      <stop
         offset="1"
         stop-color="#55374D"
         id="stop133" />
    </linearGradient>
  </defs>
  <defs
     id="defs198">
    <linearGradient
       id="gradient_2"
       gradientUnits="userSpaceOnUse"
       x1="244.25056"
       y1="151.70003"
       x2="215.57838"
       y2="141.2148">
      <stop
         offset="0"
         stop-color="#7F444C"
         id="stop197" />
      <stop
         offset="1"
         stop-color="#664756"
         id="stop198" />
    </linearGradient>
  </defs>
  <g
     id="g229"
     transform="matrix(-0.26586583,0,0,0.26586583,247.36848,-3.14201)">
    <path
       fill="#544355"
       d="m 619.844,147.65 c 3.976,-3.495 16.141,-26.008 20.328,-32.324 10.378,-15.3727 22.643,-29.3842 36.507,-41.7064 13.553,-12.1824 35.516,-29.154 52.019,-35.8338 5.641,-2.2833 11.763,-2.4388 17.5,-4.7302 8.092,-3.2322 20.124,-8.97 28.717,-8.5097 l 0.107,0.4711 c -1.998,1.0945 -4.055,1.9694 -6.148,2.8609 4.501,-0.3957 9.09,-2.0783 13.509,-3.0808 6.375,-1.4463 19.294,-2.6671 25.439,-0.5784 l 0.248,0.5872 -1.317,0.1479 -0.242,0.2431 c -7.672,1.7219 -14.832,4.013 -22.067,7.1252 6.587,-0.5705 12.912,-3.5528 19.517,-4.5128 12.848,-1.8672 29.241,3.0851 40.27,9.6232 4.633,2.7463 8.8,6.2256 13.327,9.1388 4.553,2.9306 9.632,4.9421 13.968,8.2306 4.8,3.6409 9.628,9.4837 10.496,15.6031 l 0.582,1.3654 c 0.863,5.6226 -1.172,9.994 -4.481,14.4567 -8.789,11.8554 -31.963,22.5839 -46.415,24.6299 -0.972,0.137 -1.946,0.258 -2.922,0.365 l -0.444,0.637 1.232,2.345 -0.566,0.152 c -0.822,-0.994 -1.626,-1.936 -2.545,-2.844 l -0.71,0.319 -0.057,1.132 c -2.291,0.602 -4.766,0.41 -7.148,1 -14.03,3.476 -30.789,7.526 -43.865,13.379 -19.146,8.57 -36.064,24.642 -46.519,42.726 -4.253,7.355 -7.243,15.43 -10.768,23.144 -5.808,12.708 -11.826,24.952 -16.547,38.147 -4.944,3.771 -8.713,10.654 -12.853,15.36 -4.686,5.324 -11.156,10.08 -15.183,15.794 9.536,-6.173 18.915,-15.993 24.876,-25.669 1.377,-2.235 2.313,-4.673 3.552,-6.973 -1.537,7.739 -4.378,15.078 -7.114,22.454 -1.76,4.746 -3.261,9.689 -5.293,14.318 -7.224,16.458 -18.691,29.79 -32.107,41.524 8.912,8.834 22.67,14.487 29.628,25.115 l -0.007,0.652 c -1.368,-1.006 -2.482,-2.282 -3.919,-3.209 -8.01,-5.164 -19.059,-8.388 -28.281,-10.339 l -0.578,0.299 -0.049,-0.395 -0.589,0.143 -0.462,-0.283 0.775,0.619 -0.049,-0.003 0.229,-0.3 0.573,0.686 c 26.343,9.061 32.651,11.836 50.96,33.494 -13.595,-8.45 -23.86,-15.321 -39.688,-18.997 0.132,0.074 0.263,0.15 0.396,0.222 4.114,2.246 8.707,3.722 12.999,5.612 7.582,3.341 15.672,7.644 22.439,12.427 6.607,4.668 13.355,11.296 18.443,17.61 5.586,6.931 10.768,15.449 18.074,20.633 12.346,8.759 30.522,10.155 35.574,26.596 2.979,9.695 -0.017,19.608 -1.062,29.339 -0.997,9.291 -1.393,18.759 -2.897,27.979 -5.26,32.254 -15.988,64.304 -28.937,94.259 -2.764,6.395 -5.405,13.056 -8.815,19.137 -3.206,5.721 -7.11,11.157 -13.824,12.882 -3.878,0.996 -7.72,1.209 -11.215,-0.951 -3.703,-2.288 -5.897,-6.154 -6.795,-10.341 -1.109,-5.172 -0.321,-10.751 1.199,-15.762 0.26,-0.856 1.54,-3.98 1.186,-4.57 -3.912,5.689 -5.389,12.327 -4.231,19.185 0.793,4.7 3.398,9.956 7.564,12.553 1.267,0.79 2.773,1.337 4.156,1.889 -5.97,3.08 -13.881,6.321 -20.669,4.351 -3.691,-1.071 -6.675,-3.798 -8.476,-7.144 -4.122,-7.661 -1.98,-14.906 -2.012,-23.001 -2.079,7.291 -3.791,15.635 0.114,22.642 1.711,3.073 4.196,5.321 6.764,7.649 -6.308,-0.879 -11.673,-2.651 -15.726,-7.941 -3.392,-4.427 -3.865,-9.817 -3.041,-15.172 0.55,-3.576 1.498,-7.245 3.258,-10.42 l -0.939,-2.223 c -3.218,2.442 -6.487,4.722 -9.874,6.923 -2.912,10.686 -7.465,21.861 -12.46,31.743 -2.605,5.153 -5.793,10.069 -8.014,15.403 7.162,-7.638 12.598,-16.668 19.042,-24.868 -3.453,10.464 -9.996,18.439 -15.582,27.756 0.666,0.628 1.242,1.223 1.82,1.935 0.534,0.656 0.944,0.881 1.535,1.41 0.096,0.086 0.161,0.201 0.241,0.302 l 5.604,-2.779 c -12.01,13.082 -25.753,25.33 -34.081,41.176 7.776,-7.31 15.656,-14.329 24.04,-20.938 -2.829,4.109 -5.947,8.01 -9.33,11.675 -7.517,8.191 -26.375,25.212 -30.15,34.649 6.003,-6.511 12.584,-12.805 18.231,-19.606 -8.141,16.915 -36.971,45.786 -51.247,59.204 -4.77,4.484 -10.039,8.524 -14.618,13.195 7.928,-4.215 15.151,-10.054 23.414,-13.563 -12.272,10.895 -25.77,20.444 -39.395,29.569 -13.32,8.922 -32.283,17.964 -42.19,30.431 l 0.19,1.029 c -1.331,1.593 -2.838,2.985 -4.338,4.414 1.675,-0.046 1.462,-1.12 2.955,-0.363 5.257,-2.936 9.54,-6.916 14.367,-10.438 -8.456,11.739 -21.129,19.11 -32.006,28.257 0.729,0.746 1.389,1.294 1.791,2.274 l 1.794,-0.637 0.202,0.429 c -3.136,3.835 -7.437,7.192 -11.175,10.447 -8.939,7.784 -18.281,15.029 -27.247,22.751 -9.129,7.861 -17.241,16.815 -26.304,24.71 -4.969,4.328 -10.206,8.357 -15.233,12.619 -5.865,4.972 -11.572,10.259 -17.684,14.92 -14.273,10.884 -29.137,20.996 -43.555,31.68 -9.4,6.967 -17.818,15.2 -28.175,20.789 -3.86,2.083 -8.756,3.097 -13.107,3.545 -7.775,0.801 -17.34,0.207 -23.657,-4.861 -1.031,-0.828 -1.908,-1.83 -2.772,-2.826 l -2.049,-0.984 c -0.138,0.008 -0.275,0.024 -0.413,0.024 -7.388,0.003 -14.938,-3.33 -19.263,-9.34 -1.786,-2.483 -3.43,-5.562 -5.565,-7.741 -2.043,-2.084 -4.792,-3.408 -6.851,-5.469 -3.141,-3.147 -4.188,-9.933 -4.121,-14.178 0.118,-7.367 3.188,-14.836 8.636,-19.856 8.819,-8.128 24.469,-6.157 35.548,-5.844 5.174,-5.679 9.301,-12.827 14.091,-18.921 14.54,-18.502 29.089,-37.014 42.32,-56.491 5.499,-8.095 10.35,-16.4 15.541,-24.67 -4.357,-4.579 -8.418,-9.431 -12.157,-14.528 -2.943,-3.935 -15.283,-22.369 -17.825,-24.214 -1.293,0.635 -1.248,1.262 -1.785,2.53 l 0.213,0.654 c 2.056,6.45 3.733,10.58 6.439,16.778 l -0.586,-0.524 c -2.878,-2.597 -13.288,-18.194 -15.744,-17.91 -1.431,0.166 -2.763,0.919 -4.056,1.521 -0.086,0.092 -0.157,0.202 -0.258,0.278 -12.589,9.404 -24.774,6.894 -39.139,8.426 -7.1,0.757 -13.698,2.64 -20.931,2.433 -0.12,0.179 -0.236,0.361 -0.36,0.538 -0.193,0.278 -0.394,0.549 -0.59,0.825 -1.88,2.648 -4.414,4.723 -6.811,6.89 2.866,8.049 5.124,15.92 4.429,24.548 -0.302,3.762 -1.4,10.499 -4.936,12.528 -1.287,0.738 -2.854,0.824 -3.935,1.918 -0.538,0.544 -0.312,1.006 -0.283,1.708 0.75,0.94 1.82,2.087 2.1,3.278 1.314,5.608 -0.26,14.447 -3.324,19.22 -3.284,5.115 -8.483,8.278 -14.349,9.586 -7.172,1.599 -15.205,0.181 -21.328,-3.895 -3.992,-2.689 -7.451,-6.097 -10.198,-10.049 -3.271,-4.739 -5.466,-10.429 -7.83,-15.661 -6.202,-13.722 -12.917,-27.436 -14.612,-42.592 -0.625,-5.589 -0.717,-11.291 -0.575,-16.908 0.07,-2.721 0.907,-6.207 0.387,-8.822 -1.19,-1.195 -1.935,-1.038 -3.573,-1.268 -3.56,-0.108 -7.143,-0.171 -10.387,-1.829 -6.643,-3.396 -9.506,-12.143 -12.372,-18.531 -2.531,-5.642 -4.874,-11.282 -8.585,-16.275 -6.747,-9.078 -20.721,-19.475 -23.53,-30.438 -2.603,-10.156 -0.236,-23.091 0.109,-33.596 0.205,-6.24 -0.086,-12.565 0.676,-18.77 0.33,-2.684 0.819,-5.689 2.254,-8.008 0.867,-1.971 1.957,-3.686 3.783,-4.905 6.6,-4.404 47.088,-1.813 55.289,-0.099 5.241,0.557 10.965,1.143 16.085,2.355 5.532,1.258 11.124,2.407 16.61,3.848 4.892,1.048 9.669,2.317 14.477,3.686 9.07,2.94 18.042,6.175 26.902,9.699 6.644,2.655 13.312,5.839 20.135,7.977 l 0.803,-0.484 c -1.878,-2.496 -11.309,-5.311 -14.804,-6.928 -28.559,-13.211 -59.134,-32.002 -76.636,-58.893 -2.995,-4.603 -5.257,-9.44 -7.506,-14.429 -6.813,-2.442 -14.34,-3.836 -21.42,-5.32 -26.931,-5.649 -54.8219,-9.313 -82.3907,-8.513 -5.9957,0.213 -11.984,0.599 -17.9574,1.158 -4.1681,0.426 -8.4218,2.046 -12.6183,1.368 l -0.0524,-0.44 c 0.5116,-0.326 0.9741,-0.623 1.5655,-0.79 8.4642,-2.391 20.0318,-2.683 28.8787,-2.806 9.5924,-0.133 19.1241,-0.184 28.6991,0.519 29.9355,2.2 86.6945,11.843 111.9805,27.341 0.834,0.511 0.877,0.618 1.889,0.693 -0.142,-0.278 -0.23,-0.591 -0.427,-0.833 -4.093,-4.998 -32.131,-14.178 -40.038,-16.322 -2.761,-5.067 -4.797,-10.716 -6.637,-16.173 -2.055,-1.386 -4.305,-2.549 -6.458,-3.78 l 1.155,-0.579 c 1.853,0.642 3.707,1.674 5.498,2.496 -1.58,-5.401 -3.574,-10.646 -5.07,-16.091 12.646,8.518 23.938,19.198 35.626,28.958 4.94,4.126 10.757,9.906 16.692,12.466 -5.396,-5.237 -11.469,-9.852 -17.167,-14.77 -11.751,-10.141 -22.875,-20.217 -36.066,-28.521 l 0.473,-6.359 -3.093,-3.212 0.881,-0.717 0.905,0.552 c 4.053,-2.543 8.542,-3.235 12.836,-5.088 5.55,-2.396 10.368,-5.925 13.684,-11.051 7.765,-12.003 10.133,-27.815 14.105,-41.378 5.195,-17.74 10.608,-36.016 17.456,-53.185 -1.984,1.076 -4.097,1.91 -6.171,2.797 4.28,-4.708 7.846,-10.891 9.605,-17 2.7,-9.375 2.463,-19.747 3.791,-29.419 3.234,-23.558 11.913,-54.104 24.344,-74.519 2.29,-3.761 5.806,-8.911 10.383,-9.834 3.193,-0.643 6.268,0.806 8.875,2.509 4.278,2.795 7.857,6.694 11.762,9.987 5.306,4.476 11.606,8.868 16.368,13.887 0.69,0.726 0.892,1.294 1.099,2.249 l 0.761,0.207 c 5.888,-20.068 15.378,-49.973 26.186,-67.433 l 0.555,-0.101 c 0.133,2.65 -7.401,16.755 -9.087,20.559 -5.019,11.323 -14.1,35.728 -16.162,47.569 6.675,6.941 14.192,13.215 20.581,20.371 -5.333,12.937 -11.385,25.663 -16.31,38.753 -7.07,18.794 -12.071,38.267 -16.718,57.772 -0.766,3.217 -3.644,11.255 -2.563,14.164 0.116,0.313 0.283,0.604 0.424,0.906 1.7,-1.946 4.53,-18.488 5.368,-21.993 2.818,-11.787 6.189,-23.752 9.875,-35.295 3.779,-11.837 8.509,-23.223 13.287,-34.681 12.032,-28.853 25.623,-55.776 42.071,-82.382 5.868,-9.493 12.628,-21.055 20.995,-28.47 0.205,-0.182 0.407,-0.368 0.61,-0.552 -3.162,7.245 -11.301,15.831 -15.928,22.825 -11.558,17.399 -21.926,35.56 -31.032,54.359 -2.674,5.54 -5.593,11.146 -7.696,16.931 4.863,5.461 29.418,28.494 30.848,32.9 l 1.689,1.766 c 9.565,1.296 19.255,1.223 28.826,2.788 5.201,0.85 10.372,1.76 15.514,2.927 5.621,1.277 11.437,3.019 17.2,3.382 8.943,-40.839 23.784,-79.53 47.387,-114.213 4.106,-6.034 8.31,-13.325 14.099,-17.866 -4.36,7.002 -9.558,13.484 -14.12,20.368 -11.648,17.576 -22.877,37.731 -30.104,57.547 -3.666,10.054 -7.17,20.327 -10.063,30.629 -2.376,8.461 -3.874,18.265 -7.688,26.153 l 1.678,-0.525 0.65,-0.654 c 2.36,0.658 5.139,1.798 7.165,3.173 l 0.425,0.85 c 2.475,-4.192 6.814,-7.102 10.586,-10.059 6.827,-21.077 35.796,-56.472 51.88,-72.422 6.068,-6.017 12.508,-11.428 19.376,-16.496 -0.176,1.009 -17.785,16.61 -20.24,19.14 -18.279,18.83 -38.989,44.649 -49.521,68.736 16.797,-11.429 27.342,-18.666 46.231,-26.742 -0.583,-0.484 -0.598,-0.924 -0.843,-1.627 3.384,-1.061 6.26,-2.586 9.302,-4.367 l 0.476,-0.495 c 3.409,-2.289 5.548,-6.147 8.26,-9.19 8.921,-10.008 20.385,-19.214 33.633,-22.202 -5.705,4.265 -9.083,7.301 -12.16,13.836 2.922,-2.508 5.321,-5.729 8.144,-8.395 7.317,-6.909 18.883,-13.994 28.971,-15.435 -3.134,2.253 -6.159,4.516 -8.907,7.236 10.423,-5.598 12.84,-9.807 25.579,-10.41 1.157,-1.077 2.275,-2.194 3.352,-3.349 7.188,-7.717 12.648,-17.322 16.519,-27.086 4.284,-10.806 6.432,-22.12 9.05,-33.392 2.849,-12.272 6.065,-24.904 10.134,-36.831 2.44,-7.059 5.253,-13.983 8.427,-20.744 2.232,-4.702 5.171,-9.608 6.771,-14.551 0.35,-1.081 0.292,-2.252 0.245,-3.372 l 0.68,0.191 z"
       id="path78" />
    <path
       fill="#ca535c"
       d="m 305.512,656.138 c 9.088,-2.375 18.176,-3.931 27.591,-4.206 32.984,-0.963 72.247,8.5 103.238,19.476 5.055,1.79 10.309,3.442 15.2,5.639 5.053,2.269 9.99,5.163 14.773,7.97 1.993,1.17 3.779,2.287 5.133,4.202 -0.779,11.3 -8.5,22.464 -12.233,33.09 -3.626,10.319 -5.02,21.659 -10.429,31.247 -4.021,7.128 -10.964,12.714 -15.985,19.145 -7.298,9.346 -12.279,20.413 -21.365,28.338 -6.973,6.083 -15.274,8.549 -24.454,7.865 -15.892,-1.185 -31.017,-15.248 -40.781,-26.748 -13.003,-15.314 -23.435,-32.783 -34.523,-49.482 -4.705,-7.086 -10.879,-14.621 -14.528,-22.229 -0.61,-1.271 -0.924,-2.567 -1.162,-3.952 l -0.92,0.261 c -0.044,-3.487 -1.998,-11.878 -0.241,-14.633 0.735,0.703 0.568,0.441 1.012,1.174 3.291,5.431 7.948,9.95 11.7,15.08 2.307,3.154 4.097,6.666 6.339,9.876 4.139,5.924 8.909,11.426 13.264,17.195 3.581,4.742 6.789,9.919 10.727,14.361 1.515,1.709 3.373,3.678 5.536,4.511 1.304,0.503 2.249,1.46 3.657,1.747 3.349,0.683 9.35,-0.059 11.975,-2.456 1.087,-0.993 1.097,-1.342 1.275,-2.724 -0.387,-0.656 -0.739,-1.278 -0.992,-2 -0.701,-1.996 -1.577,-3.096 -3.032,-4.608 -4.465,-4.641 -9.837,-8.644 -14.707,-12.862 -11.782,-10.201 -23.722,-20.174 -35.426,-30.467 -3.036,-2.669 -8.17,-5.973 -10.381,-9.255 -0.6,-0.89 -0.727,-1.994 -0.87,-3.041 -0.753,-5.524 1.251,-24.781 4.848,-29.048 0.123,-0.147 0.258,-0.282 0.385,-0.425 1.098,-1.234 1.997,-2.138 3.513,-2.856 0.957,-0.454 0.831,-0.571 1.863,-0.185 z"
       id="path79" />
    <path
       fill="#ca535c"
       d="m 297.001,675.695 c 19.263,-6.582 38.331,-4.57 57.548,1.114 3.365,1.055 7.131,1.918 10.285,3.47 4.245,1.277 8.327,3.042 12.165,5.262 l 3.154,1.753 c 6.403,3.506 13.061,7.43 18.154,12.748 1.03,1.092 2.154,2.124 2.841,3.474 2.28,2.724 4.945,5.353 5.597,8.958 -0.348,0.568 -0.573,0.955 -1.083,1.394 -1.768,0.757 -3.601,1.453 -5.457,1.965 -16.219,4.471 -35.883,-3.63 -49.713,-11.703 -1.954,-0.899 -3.856,-2.231 -5.715,-3.331 -5.88,-2.403 -11.478,-5.777 -17.194,-8.575 -2.162,-0.556 -4.348,-1.363 -6.555,-1.669 l -0.231,0.251 -1.333,-0.713 c 1.251,1.444 3.109,1.975 4.199,3.602 -8.694,-3.217 -18.447,-9.032 -27.015,-13.139 -0.705,0.528 -0.794,1.676 -1.034,2.52 -0.205,-1.447 -0.002,-2.944 0.085,-4.402 0.276,-1.237 0.557,-1.951 1.302,-2.979 z"
       id="path80" />
    <path
       fill="#ca535c"
       d="m 297.001,675.695 c 19.263,-6.582 38.331,-4.57 57.548,1.114 -2.07,0.479 -3.924,0.843 -5.722,2.053 -5.214,-1.136 -18.002,-4.806 -22.722,-2.898 l -0.037,1.301 -0.94,0.403 c -3.776,-0.248 -7.278,-0.002 -11.018,0.527 -1.645,0.017 -3.59,-0.154 -5.165,0.291 -1.875,0.603 -3.819,1.133 -5.656,1.834 l -0.869,-0.47 -1.842,-1.194 c -1.224,-0.948 -2.417,-1.936 -3.577,-2.961 z"
       id="path81" />
    <path
       fill="#7b2f3a"
       d="m 312.193,677.279 c 4.167,-1.908 9.39,-1.302 13.912,-1.315 l -0.037,1.301 -0.94,0.403 c -3.776,-0.248 -7.278,-0.002 -11.018,0.527 z"
       id="path82" />
    <path
       fill="#91424d"
       d="m 302.42,679.85 0.792,-1.641 c 1.677,-0.653 2.639,-0.236 4.387,0.076 l 1.346,0.201 c -1.875,0.603 -3.819,1.133 -5.656,1.834 z"
       id="path83" />
    <path
       fill="#91424d"
       d="m 307.599,678.285 c 0.487,-1.195 0.522,-1.284 1.6,-1.982 1.289,0.081 1.898,0.295 2.994,0.976 l 1.917,0.916 c -1.645,0.017 -3.59,-0.154 -5.165,0.291 z"
       id="path84" />
    <path
       fill="#91424d"
       d="m 367.888,694.316 c 9.249,0.987 21.425,9.415 28.446,10.218 1.28,0.147 2.832,-0.436 4.053,-0.807 l 0.761,-0.211 c 2.28,2.724 4.945,5.353 5.597,8.958 -0.348,0.568 -0.573,0.955 -1.083,1.394 -6.877,-6.834 -14.388,3.031 -24.355,-1.169 2.678,-1.135 11.426,0.859 17.98,-2.612 l -0.167,-0.532 c -2.376,-0.753 -4.502,-0.293 -6.926,0.051 -1.129,0.16 -1.46,0.301 -2.547,-0.09 1.187,-0.554 1.595,-0.604 2.37,-1.693 -1.742,-2.334 -5.221,-1.418 -7.075,-3.413 -0.014,-0.259 -0.05,-1.259 -0.133,-1.479 -0.872,-2.294 -8.971,-1.978 -11.369,-3.364 0.32,-0.985 2.033,-0.263 2.932,-1.193 -1.92,-1.565 -5.108,-0.831 -7.314,-2.224 1.245,0.228 2.404,0.328 3.663,0.386 l 0.254,-0.294 c -1.714,-0.601 -3.399,-1.255 -5.087,-1.926 z"
       id="path85" />
    <path
       fill="#91424d"
       d="m 326.105,675.964 c 4.72,-1.908 17.508,1.762 22.722,2.898 1.798,-1.21 3.652,-1.574 5.722,-2.053 3.365,1.055 7.131,1.918 10.285,3.47 0.668,0.53 1.126,1.113 1.976,1.242 0.706,0.107 0.439,0.033 1.08,0.413 l 0.278,0.529 -1.046,-0.359 0.868,0.38 c -1.496,-0.129 -3.288,-0.483 -4.731,-0.112 l -0.44,0.881 c -3.058,-0.218 -6.17,-0.21 -9.237,-0.309 -2.974,0.299 -6.321,-0.646 -9.376,-0.696 -1.837,-0.031 -3.883,0.657 -5.632,0.428 -0.14,-0.018 -0.277,-0.087 -0.417,-0.073 -0.162,0.016 -0.306,0.107 -0.459,0.161 0.372,-0.74 1.699,-1.11 2.458,-1.473 -1.697,-0.431 -3.263,-0.961 -5.029,-0.688 -0.135,-0.16 -0.249,-0.34 -0.404,-0.48 -1.41,-1.267 -4.712,-1.866 -6.57,-1.974 -1.102,-0.015 -1.966,-0.181 -3.025,-0.481 l 0.94,-0.403 z"
       id="path86" />
    <path
       fill="#ad4e5e"
       d="m 354.549,676.809 c 3.365,1.055 7.131,1.918 10.285,3.47 0.668,0.53 1.126,1.113 1.976,1.242 0.706,0.107 0.439,0.033 1.08,0.413 l 0.278,0.529 -1.046,-0.359 0.868,0.38 c -1.496,-0.129 -3.288,-0.483 -4.731,-0.112 -4.66,-1.608 -9.688,-2.127 -14.432,-3.51 1.798,-1.21 3.652,-1.574 5.722,-2.053 z"
       id="path87" />
    <path
       fill="#91424d"
       d="m 369.804,690.376 c -5.775,-0.976 -13.491,-2.88 -18.537,-5.851 8.43,1.784 16.784,3.139 25.407,3.496 1.415,-0.028 2.18,-0.07 3.479,-0.727 6.403,3.506 13.061,7.43 18.154,12.748 -2.091,-0.235 -4.18,-0.744 -6.25,-1.129 -0.933,-0.47 -1.884,-0.918 -2.802,-1.415 -6.078,-3.29 -13.124,-4.315 -19.451,-7.122 z"
       id="path88" />
    <path
       fill="#7b2f3a"
       d="m 297.001,675.695 c 1.16,1.025 2.353,2.013 3.577,2.961 l 1.842,1.194 0.869,0.47 c 4.49,2.481 9.111,3.619 14.241,1.992 0.196,-0.063 0.371,-0.177 0.557,-0.265 -2.273,0.561 -4.185,1.406 -6.283,2.414 l 0.235,0.602 0.427,0.103 c 1.308,0.323 2.432,0.575 3.381,1.604 1.234,1.607 2.177,2.37 4.247,2.596 0.943,0.103 1.806,0.077 2.749,-0.002 1.581,0.841 3.437,1.621 4.74,2.86 -2.162,-0.556 -4.348,-1.363 -6.555,-1.669 l -0.231,0.251 -1.333,-0.713 c 1.251,1.444 3.109,1.975 4.199,3.602 -8.694,-3.217 -18.447,-9.032 -27.015,-13.139 -0.705,0.528 -0.794,1.676 -1.034,2.52 -0.205,-1.447 -0.002,-2.944 0.085,-4.402 0.276,-1.237 0.557,-1.951 1.302,-2.979 z"
       id="path89" />
    <path
       fill="#91424d"
       d="m 297.001,675.695 c 1.16,1.025 2.353,2.013 3.577,2.961 -1.758,0.498 -3.091,0.285 -4.879,0.018 0.276,-1.237 0.557,-1.951 1.302,-2.979 z"
       id="path90" />
    <path
       fill="#7b2f3a"
       d="m 347.895,692.409 c -3.795,0.088 -11.414,1.439 -14.652,0.617 -1.116,-0.283 -0.334,-0.262 -1.517,-0.229 -0.689,0.019 -1.229,-0.003 -1.91,-0.105 l 0.072,-0.74 c 0.505,-0.423 0.578,-0.546 1.297,-0.79 1.04,-0.353 20.994,-1.487 22.589,-1.319 2.9,0.305 5.787,1.497 8.523,2.454 l -0.389,0.773 -2.847,0.166 c -3.268,-1.648 -7.619,-1.387 -11.166,-0.827 z"
       id="path91" />
    <path
       fill="#91424d"
       d="m 315.847,686.77 c 9.315,1.88 17.666,-1.509 26.75,-1.54 2.938,-0.011 5.475,1.827 8.346,2.188 l -0.158,0.462 -0.057,0.827 c -2.178,-0.679 -4.824,-1.804 -7.078,-2.005 -5.392,-0.481 -15.437,1.346 -20.807,2.662 -0.943,0.079 -1.806,0.105 -2.749,0.002 -2.07,-0.226 -3.013,-0.989 -4.247,-2.596 z"
       id="path92" />
    <path
       fill="#91424d"
       d="m 347.895,692.409 c 3.547,-0.56 7.898,-0.821 11.166,0.827 -3.36,1.528 -7.828,0.245 -11.166,-0.827 z"
       id="path93" />
    <path
       fill="#91424d"
       d="m 362.297,692.297 c 2.062,0.451 3.723,1.036 5.591,2.019 -1.102,0.67 -2.339,1.087 -3.621,1.221 -1.187,0.114 -1.722,-0.014 -2.596,-0.788 l 0.237,-1.679 z"
       id="path94" />
    <path
       fill="#7b2f3a"
       d="m 328.153,678.149 c 1.858,0.108 5.16,0.707 6.57,1.974 0.155,0.14 0.269,0.32 0.404,0.48 -0.975,0.117 -1.921,0.316 -2.895,0.156 -0.76,-0.455 -1.088,-0.531 -2.004,-0.573 -1.46,-0.068 -0.49,0.044 -1.833,-0.117 -0.204,-0.024 -0.407,-0.055 -0.611,-0.082 z"
       id="path95" />
    <path
       fill="#7b2f3a"
       d="m 352.915,701.714 c 2.806,-1.877 9.392,-0.11 12.681,0.497 1.901,0.351 3.56,1.409 5.419,1.786 1.854,0.377 3.796,0.346 5.68,0.661 l -0.228,-0.643 -0.516,1.021 c -5.605,1.128 -11.097,-1.416 -16.668,-0.247 l -0.524,-0.635 c 0.299,-0.954 0.371,-1.062 1.129,-1.715 -2.085,-0.409 -4.013,-0.417 -6.131,-0.358 z"
       id="path96" />
    <path
       fill="#91424d"
       d="m 376.215,705.928 c 1.015,-0.099 1.602,-0.027 2.521,0.367 0.623,0.267 1.202,0.512 1.851,0.715 1.542,0.48 2.535,0.895 3.839,1.857 l 0.029,0.683 c -2.655,0.466 -5.571,-0.615 -8.042,-1.523 1.155,2.066 2.829,0.905 4.024,2.501 l -0.571,0.475 c -2.137,-0.138 -5.514,-0.996 -7.164,-2.354 0.598,-1.345 2.289,-2.007 3.513,-2.721 z"
       id="path97" />
    <path
       fill="#ad4e5e"
       d="m 353.845,697.258 c 3.985,-0.237 7.319,0.27 11.106,1.51 -4.14,0.243 -7.207,-0.059 -11.106,-1.51 z"
       id="path98" />
    <path
       fill="#723d49"
       d="m 295.067,706.754 c -0.044,-3.487 -1.998,-11.878 -0.241,-14.633 0.735,0.703 0.568,0.441 1.012,1.174 3.291,5.431 7.948,9.95 11.7,15.08 2.307,3.154 4.097,6.666 6.339,9.876 4.139,5.924 8.909,11.426 13.264,17.195 3.581,4.742 6.789,9.919 10.727,14.361 1.515,1.709 3.373,3.678 5.536,4.511 1.304,0.503 2.249,1.46 3.657,1.747 3.349,0.683 9.35,-0.059 11.975,-2.456 1.087,-0.993 1.097,-1.342 1.275,-2.724 -0.387,-0.656 -0.739,-1.278 -0.992,-2 -0.701,-1.996 -1.577,-3.096 -3.032,-4.608 -4.465,-4.641 -9.837,-8.644 -14.707,-12.862 -11.782,-10.201 -23.722,-20.174 -35.426,-30.467 -3.036,-2.669 -8.17,-5.973 -10.381,-9.255 -0.6,-0.89 -0.727,-1.994 -0.87,-3.041 -0.753,-5.524 1.251,-24.781 4.848,-29.048 0.123,-0.147 0.258,-0.282 0.385,-0.425 1.098,-1.234 1.997,-2.138 3.513,-2.856 0.957,-0.454 0.831,-0.571 1.863,-0.185 -1.383,0.939 -2.78,1.702 -4.27,2.458 -2.315,4.743 -3.679,8.711 -4.479,13.928 27.07,-8.017 58.965,-2.696 83.661,10.698 9.536,5.172 25.675,15.38 28.632,26.752 0.491,1.888 0.315,3.623 -0.807,5.261 -2.351,3.429 -9.144,4.083 -12.974,4.449 -18.995,1.817 -35.936,-7.272 -52.16,-15.742 -6.49,-3.389 -13.083,-6.635 -19.452,-10.247 -1.09,-1.627 -2.948,-2.158 -4.199,-3.602 l 1.333,0.713 0.231,-0.251 c 2.207,0.306 4.393,1.113 6.555,1.669 5.716,2.798 11.314,6.172 17.194,8.575 1.859,1.1 3.761,2.432 5.715,3.331 13.83,8.073 33.494,16.174 49.713,11.703 1.856,-0.512 3.689,-1.208 5.457,-1.965 0.51,-0.439 0.735,-0.826 1.083,-1.394 -0.652,-3.605 -3.317,-6.234 -5.597,-8.958 -0.687,-1.35 -1.811,-2.382 -2.841,-3.474 -5.093,-5.318 -11.751,-9.242 -18.154,-12.748 l -3.154,-1.753 c -3.838,-2.22 -7.92,-3.985 -12.165,-5.262 -3.154,-1.552 -6.92,-2.415 -10.285,-3.47 -19.217,-5.684 -38.285,-7.696 -57.548,-1.114 -0.745,1.028 -1.026,1.742 -1.302,2.979 -0.087,1.458 -0.29,2.955 -0.085,4.402 l -0.058,7.84 c 10.312,7.811 19.53,16.956 29.415,25.293 10.106,8.524 22.586,17.523 31.487,27.047 1.807,1.934 4.196,4.906 4.363,7.684 0.086,1.442 -0.16,2.358 -1.118,3.454 -1.832,2.095 -6.584,2.723 -9.176,2.681 -5.514,-0.09 -9.763,-2.86 -13.418,-6.781 -2.991,-3.208 -5.454,-7.07 -8.04,-10.608 -4.474,-6.12 -9.122,-12.34 -14.041,-18.105 -3.231,-4.583 -5.652,-9.79 -9.39,-13.988 -3.587,-4.419 -7.107,-8.893 -10.559,-13.419 0.2,4.113 0.503,8.221 0.908,12.319 z"
       id="path99" />
    <path
       fill="#ad4e5e"
       d="m 305.638,707.593 c 3.738,4.198 6.159,9.405 9.39,13.988 -0.098,0.015 -0.196,0.059 -0.293,0.043 -0.28,-0.046 -0.542,-0.17 -0.82,-0.224 -1.189,-0.231 -1.706,-0.263 -2.731,-1.082 -3.206,-2.557 -4.992,-8.778 -5.546,-12.725 z"
       id="path100" />
    <path
       fill="#ca535c"
       d="m 106.251,621.816 c 0.867,-1.971 1.957,-3.686 3.783,-4.905 6.6,-4.404 47.088,-1.813 55.289,-0.099 5.241,0.557 10.965,1.143 16.085,2.355 5.532,1.258 11.124,2.407 16.61,3.848 4.892,1.048 9.669,2.317 14.477,3.686 9.07,2.94 18.042,6.175 26.902,9.699 6.644,2.655 13.312,5.839 20.135,7.977 1.304,0.207 2.435,0.143 3.392,1.091 -3.777,3.725 -5.146,7.011 -5.97,12.14 -0.958,1.998 -1.832,4.071 -3.444,5.647 l -0.591,3.869 c -0.267,0.963 -0.687,2.086 -0.414,3.09 0.478,2.392 0.443,4.774 0.478,7.204 0.108,1.101 0.292,2.153 0.111,3.25 -4.061,2.698 -9.101,4.493 -13.616,6.358 l 1.097,2.81 c 4.132,-1.705 8.505,-3.252 12.468,-5.303 1.062,3.719 2.025,7.509 3.514,11.083 2.214,1.148 4.469,2.201 6.418,3.774 l -3.967,2.915 c -5.897,2.414 -11.285,5.919 -16.98,8.738 -9.277,4.592 -18.798,8.707 -27.976,13.494 -9.045,4.718 -17.809,10.213 -27.027,14.55 -5.916,2.784 -12.148,5.25 -18.447,6.994 -2.472,0.685 -6.241,0.829 -8.419,1.856 -0.656,0.432 -1.361,1.011 -2.073,1.326 -3.56,-0.108 -7.143,-0.171 -10.387,-1.829 -6.643,-3.396 -9.506,-12.143 -12.372,-18.531 -2.531,-5.642 -4.874,-11.282 -8.585,-16.275 -6.747,-9.078 -20.721,-19.475 -23.53,-30.438 -2.603,-10.156 -0.236,-23.091 0.109,-33.596 0.205,-6.24 -0.086,-12.565 0.676,-18.77 0.33,-2.684 0.819,-5.689 2.254,-8.008 z"
       id="path101" />
    <path
       fill="#723d49"
       d="m 252.983,677.418 c 0.108,1.101 0.292,2.153 0.111,3.25 -4.061,2.698 -9.101,4.493 -13.616,6.358 l 1.097,2.81 c -5.304,4.008 -18.066,7.797 -24.552,10.62 -6.023,2.621 -11.819,5.917 -18.066,7.993 -9.062,3.014 -22.983,3.461 -31.604,-1.088 -1.832,-0.967 -2.946,-1.861 -3.529,-3.905 0.214,-1.616 0.698,-2.461 1.853,-3.571 17.599,-16.91 64.191,-22.222 88.306,-22.467 z"
       id="path102" />
    <path
       fill="#ad4e5e"
       d="m 233.915,682.214 c -2.636,1.447 -22.475,10.572 -24.728,11.163 -3.03,1.139 -6.052,2.298 -9.067,3.477 -4.75,1.92 -13.424,6.297 -17.056,9.926 -0.423,0.216 -0.559,0.321 -1.093,0.39 -2.69,0.349 -11.286,-0.719 -13.482,-2.106 3.301,-0.701 5.796,-2.154 8.666,-3.851 l -0.519,-0.733 c 4.452,-2.729 9.012,-5.944 13.828,-7.957 4.864,-2.032 18.644,-5.724 21.942,-8.096 1.248,-0.696 1.392,-0.906 2.786,-0.736 0.189,0.135 0.359,0.304 0.568,0.405 1.319,0.64 2.444,0.309 3.794,0.255 0.24,-0.009 0.479,0.024 0.719,0.037 4.438,-0.118 9.009,-1.989 13.642,-2.174 z"
       id="path103" />
    <path
       fill="#7b2f3a"
       d="m 212.406,684.427 c 1.248,-0.696 1.392,-0.906 2.786,-0.736 0.189,0.135 0.359,0.304 0.568,0.405 1.319,0.64 2.444,0.309 3.794,0.255 0.24,-0.009 0.479,0.024 0.719,0.037 -14.73,4.958 -29.486,9.112 -43.118,16.825 l -0.519,-0.733 c 4.452,-2.729 9.012,-5.944 13.828,-7.957 4.864,-2.032 18.644,-5.724 21.942,-8.096 z"
       id="path104" />
    <path
       fill="#ad4e5e"
       d="m 233.915,682.214 c 0.972,-1.166 1.731,-2.006 3.346,-2.158 0.582,-0.055 1.126,0.071 1.69,0.169 0.57,0.865 0.596,1.001 0.626,2.04 1.556,-0.247 2.947,-0.539 4.527,-0.4 3.033,-0.563 5.876,-1.449 8.99,-1.197 -4.061,2.698 -9.101,4.493 -13.616,6.358 -11.489,4.886 -45.622,21.453 -55.94,20.09 l -0.474,-0.336 c 3.632,-3.629 12.306,-8.006 17.056,-9.926 3.015,-1.179 6.037,-2.338 9.067,-3.477 2.253,-0.591 22.092,-9.716 24.728,-11.163 z"
       id="path105" />
    <path
       fill="#7b2f3a"
       d="m 233.915,682.214 c 0.972,-1.166 1.731,-2.006 3.346,-2.158 0.582,-0.055 1.126,0.071 1.69,0.169 0.57,0.865 0.596,1.001 0.626,2.04 1.556,-0.247 2.947,-0.539 4.527,-0.4 -11.292,3.68 -22.441,7.788 -33.421,12.315 l -1.496,-0.803 c 2.253,-0.591 22.092,-9.716 24.728,-11.163 z"
       id="path106" />
    <path
       fill="#7b2f3a"
       d="m 200.12,696.854 c 3.015,-1.179 6.037,-2.338 9.067,-3.477 l 1.496,0.803 c -3.686,1.708 -7.354,3.535 -11.102,5.097 -5.02,2.943 -11.551,4.183 -16.043,7.839 l -0.474,-0.336 c 3.632,-3.629 12.306,-8.006 17.056,-9.926 z"
       id="path107" />
    <path
       fill="#ad4e5e"
       d="m 166.814,704.301 -0.631,0.286 c 0.118,-1.266 0.734,-2.542 1.596,-3.489 6.477,-7.113 35.212,-16.144 44.627,-16.671 -3.298,2.372 -17.078,6.064 -21.942,8.096 -4.816,2.013 -9.376,5.228 -13.828,7.957 -3.154,0.941 -7.304,1.67 -9.822,3.821 z"
       id="path108" />
    <path
       fill="#ca535c"
       d="m 173.828,642.326 c 2.734,-0.194 6.658,-0.74 9.03,0.784 l -0.073,0.757 c -0.982,0.692 -1.819,1.215 -2.938,1.681 l 0.353,0.6 c 2.19,-1.072 4.42,-2.061 6.684,-2.965 5.435,0.909 11.249,1.657 16.538,3.203 3.901,1.017 8.752,1.736 12.229,3.756 l 0.361,0.841 c -1.141,1.618 -10.567,6.871 -12.976,8.643 1.146,0.063 1.775,0.154 2.882,-0.172 0.763,0.893 0.832,0.946 1.965,1.245 l 0.419,0.26 -0.739,1.267 0.327,0.944 c -5.031,0.915 -11.477,2 -16.584,1.612 -6.598,0.772 -13.184,2.236 -19.851,2.375 -1.519,0.603 -2.572,0.576 -4.19,0.457 -1.651,0.033 -3.011,0.333 -4.615,0.715 -0.909,0.216 -0.531,0.158 -1.496,0.163 -3.028,0.254 -6.072,0.439 -9.071,0.939 -5.388,0.075 -11.523,-2.817 -15.911,-5.755 l 0.993,-1.57 1.254,-1.382 c 0.301,-1.445 0.973,-1.818 2.007,-2.839 1.677,-0.253 2.943,-0.875 4.435,-1.626 4.574,-2.304 9.123,-4.818 13.852,-6.79 3.616,-1.508 7.507,-2.496 11.064,-4.103 1.515,-0.685 2.81,-1.959 4.051,-3.04 z"
       id="path109" />
    <path
       fill="#ad4e5e"
       d="m 173.828,642.326 c 2.734,-0.194 6.658,-0.74 9.03,0.784 l -0.073,0.757 c -0.982,0.692 -1.819,1.215 -2.938,1.681 -5.675,1.619 -11.077,4.306 -16.499,6.62 -8.035,3.429 -16.417,6.551 -24.929,8.556 0.301,-1.445 0.973,-1.818 2.007,-2.839 1.677,-0.253 2.943,-0.875 4.435,-1.626 4.574,-2.304 9.123,-4.818 13.852,-6.79 3.616,-1.508 7.507,-2.496 11.064,-4.103 1.515,-0.685 2.81,-1.959 4.051,-3.04 z"
       id="path110" />
    <path
       fill="#91424d"
       d="m 138.419,660.724 c 8.512,-2.005 16.894,-5.127 24.929,-8.556 5.422,-2.314 10.824,-5.001 16.499,-6.62 l 0.353,0.6 c -5.33,3.003 -10.742,5.809 -16.011,8.928 -3.855,2.283 -7.64,5.089 -11.67,6.996 -1.385,0.655 -4.458,1.87 -5.919,1.562 l 0.128,-0.749 c 2.171,-1.291 4.413,-1.516 6.717,-2.404 3.306,-1.273 7.757,-4.625 10.011,-7.309 -8.831,3.022 -17.275,6.474 -26.291,8.934 z"
       id="path111" />
    <path
       fill="#91424d"
       d="m 167.265,667.614 c 4.686,-3.752 15.07,-11.743 20.978,-12.902 l 0.164,0.745 c 0.861,-0.003 1.492,-0.106 2.283,0.272 -1.192,0.118 -2.406,0.217 -3.553,0.578 -2.571,0.81 -14.766,8.763 -15.682,10.85 -1.519,0.603 -2.572,0.576 -4.19,0.457 z"
       id="path112" />
    <path
       fill="#ca535c"
       d="m 207.89,663.17 c 13.547,-1.35 23.458,-1.371 37.194,-0.471 1.936,0.064 3.881,0.265 5.764,-0.268 1.032,-0.188 1.498,-0.326 2.529,-0.04 l 0.133,0.864 -0.591,3.869 c -0.267,0.963 -0.687,2.086 -0.414,3.09 -9.175,0.478 -18.361,0.452 -27.514,1.348 -6.026,0.59 -13.035,2.6 -19.014,2.346 -0.119,-0.925 -0.013,-0.549 -0.378,-1.457 -0.088,-0.219 -0.183,-0.434 -0.275,-0.652 l 0.532,-1.025 c -11.748,1.178 -23.46,2.069 -35.266,2.289 -4.888,0.202 -14.307,-1.208 -18.507,-3.632 2.999,-0.5 6.043,-0.685 9.071,-0.939 0.965,-0.005 0.587,0.053 1.496,-0.163 1.604,-0.382 2.964,-0.682 4.615,-0.715 1.618,0.119 2.671,0.146 4.19,-0.457 6.667,-0.139 13.253,-1.603 19.851,-2.375 5.107,0.388 11.553,-0.697 16.584,-1.612 z"
       id="path113" />
    <path
       fill="#7b2f3a"
       d="m 207.89,663.17 c 13.547,-1.35 23.458,-1.371 37.194,-0.471 l 0.316,0.712 c -1.8,1.365 -8.265,0.675 -10.894,1.415 -0.518,0.146 -1.043,0.264 -1.565,0.397 -4.173,0.19 -8.404,0.482 -12.578,0.383 -4.107,-0.098 -8.226,-0.504 -12.334,-0.266 -9.138,0.53 -29.041,4.97 -36.843,3.596 -2.934,-0.016 -7.321,0.494 -10.032,-0.444 0.965,-0.005 0.587,0.053 1.496,-0.163 1.604,-0.382 2.964,-0.682 4.615,-0.715 1.618,0.119 2.671,0.146 4.19,-0.457 6.667,-0.139 13.253,-1.603 19.851,-2.375 5.107,0.388 11.553,-0.697 16.584,-1.612 z"
       id="path114" />
    <path
       fill="#7b2f3a"
       d="m 252.504,666.94 0.415,0.184 c -0.267,0.963 -0.687,2.086 -0.414,3.09 -9.175,0.478 -18.361,0.452 -27.514,1.348 -6.026,0.59 -13.035,2.6 -19.014,2.346 -0.119,-0.925 -0.013,-0.549 -0.378,-1.457 -0.088,-0.219 -0.183,-0.434 -0.275,-0.652 l 0.532,-1.025 c 3.917,-0.874 8.42,-0.978 12.423,-1.345 11.404,-1.045 22.824,-1.525 34.225,-2.489 z"
       id="path115" />
    <path
       fill="#91424d"
       d="m 250.848,662.431 c 1.032,-0.188 1.498,-0.326 2.529,-0.04 l 0.133,0.864 -0.591,3.869 -0.415,-0.184 -0.543,-0.721 c -4.192,-1.193 -14.037,-0.622 -19.02,-0.996 0.522,-0.133 1.047,-0.251 1.565,-0.397 2.629,-0.74 9.094,-0.05 10.894,-1.415 l -0.316,-0.712 c 1.936,0.064 3.881,0.265 5.764,-0.268 z"
       id="path116" />
    <path
       fill="#91424d"
       d="m 152.083,669.431 c 2.999,-0.5 6.043,-0.685 9.071,-0.939 2.711,0.938 7.098,0.428 10.032,0.444 l -1.567,1.719 c -1.068,-0.048 -1.795,-0.304 -2.783,-0.658 -2.32,-0.832 -3.81,-0.282 -6.095,0.412 l 0.159,0.656 0.281,0.065 0.585,-0.394 c 2.929,0.713 5.996,1.289 8.824,2.327 -4.888,0.202 -14.307,-1.208 -18.507,-3.632 z"
       id="path117" />
    <path
       fill="#5a3a4a"
       d="m 106.251,621.816 c 0.651,-0.322 1.045,-0.523 1.774,-0.623 -0.17,0.784 -0.371,1.549 -0.563,2.326 -0.227,0.922 -0.211,1.633 -0.154,2.568 l 0.01,0.809 c 0.067,9.668 -0.689,19.67 -1.231,29.336 -0.438,7.801 -1.697,16.247 0.208,23.94 0.858,3.463 2.647,6.482 4.734,9.332 6.105,8.334 14.584,15.026 19.818,23.983 4.264,7.298 11.609,26.044 16.079,30.644 3.44,3.539 8.631,3.538 13.233,3.806 -0.656,0.432 -1.361,1.011 -2.073,1.326 -3.56,-0.108 -7.143,-0.171 -10.387,-1.829 -6.643,-3.396 -9.506,-12.143 -12.372,-18.531 -2.531,-5.642 -4.874,-11.282 -8.585,-16.275 -6.747,-9.078 -20.721,-19.475 -23.53,-30.438 -2.603,-10.156 -0.236,-23.091 0.109,-33.596 0.205,-6.24 -0.086,-12.565 0.676,-18.77 0.33,-2.684 0.819,-5.689 2.254,-8.008 z"
       id="path118" />
    <path
       fill="#723d49"
       d="m 132.568,661.475 c -0.652,-1.524 -0.57,-2.699 -0.035,-4.243 1.758,-5.085 8.44,-8.728 13.028,-10.997 9.052,-4.477 21.673,-7.641 31.797,-7.086 4.672,0.256 9.504,1.363 14.111,2.204 4.757,0.869 9.554,1.647 14.142,3.212 l -0.444,1.256 -1.745,0.565 c -5.289,-1.546 -11.103,-2.294 -16.538,-3.203 -2.264,0.904 -4.494,1.893 -6.684,2.965 l -0.353,-0.6 c 1.119,-0.466 1.956,-0.989 2.938,-1.681 l 0.073,-0.757 c -2.372,-1.524 -6.296,-0.978 -9.03,-0.784 -1.241,1.081 -2.536,2.355 -4.051,3.04 -3.557,1.607 -7.448,2.595 -11.064,4.103 -4.729,1.972 -9.278,4.486 -13.852,6.79 -1.492,0.751 -2.758,1.373 -4.435,1.626 -1.034,1.021 -1.706,1.394 -2.007,2.839 l -1.254,1.382 -0.993,1.57 -2.047,-2.657 c -0.563,0.116 -1.051,0.171 -1.557,0.456 z"
       id="path119" />
    <path
       fill="#ca535c"
       d="m 137.429,655.638 c 9.491,-8.655 23.792,-12.778 36.399,-13.312 -1.241,1.081 -2.536,2.355 -4.051,3.04 -3.557,1.607 -7.448,2.595 -11.064,4.103 -4.729,1.972 -9.278,4.486 -13.852,6.79 -1.492,0.751 -2.758,1.373 -4.435,1.626 -1.034,1.021 -1.706,1.394 -2.007,2.839 l -1.254,1.382 -0.993,1.57 -2.047,-2.657 c 0.511,-2.5 1.417,-3.707 3.304,-5.381 z"
       id="path120" />
    <path
       fill="#91424d"
       d="m 137.429,655.638 c -0.527,1.111 -1.041,2.107 -1.33,3.309 1.442,-0.437 2.846,-0.784 4.327,-1.062 -1.034,1.021 -1.706,1.394 -2.007,2.839 l -1.254,1.382 -0.993,1.57 -2.047,-2.657 c 0.511,-2.5 1.417,-3.707 3.304,-5.381 z"
       id="path121" />
    <path
       fill="#ad4e5e"
       d="m 221.142,652.463 c 10.51,2.385 19.888,5.516 29.706,9.968 -1.883,0.533 -3.828,0.332 -5.764,0.268 -13.736,-0.9 -23.647,-0.879 -37.194,0.471 l -0.327,-0.944 0.739,-1.267 -0.419,-0.26 c -1.133,-0.299 -1.202,-0.352 -1.965,-1.245 4.976,-2.555 9.879,-5.281 15.224,-6.991 z"
       id="path122" />
    <path
       fill="#91424d"
       d="m 207.883,660.699 c 3.158,-2.28 12.439,-6.808 16.353,-5.624 0.62,0.188 0.67,0.258 1.149,0.564 -1.742,1.386 -4.949,0.837 -7.094,1.345 -3.351,0.792 -6.841,2.567 -9.989,3.975 z"
       id="path123" />
    <path
       fill="#91424d"
       d="m 217.039,660.415 c 5.719,-2.562 9.107,-3.791 15.371,-2.8 l 7.528,1.032 c -4.104,0.113 -8.229,0.314 -12.332,0.113 -3.506,0.221 -7.099,1.058 -10.567,1.655 z"
       id="path124" />
    <path
       fill="#ca535c"
       d="m 232.41,657.615 7.528,1.032 c -4.104,0.113 -8.229,0.314 -12.332,0.113 1.03,-0.487 3.235,-0.374 4.392,-0.428 z"
       id="path125" />
    <path
       fill="url(#gradient_0)"
       d="m 132.568,661.475 c 0.506,-0.285 0.994,-0.34 1.557,-0.456 l 2.047,2.657 c 4.388,2.938 10.523,5.83 15.911,5.755 4.2,2.424 13.619,3.834 18.507,3.632 11.806,-0.22 23.518,-1.111 35.266,-2.289 l -0.532,1.025 c 0.092,0.218 0.187,0.433 0.275,0.652 0.365,0.908 0.259,0.532 0.378,1.457 -19.223,3.563 -40.586,3.807 -59.34,-2.173 -5.693,-1.814 -11.215,-4.806 -14.069,-10.26 z"
       id="path126"
       style="fill:url(#gradient_0)" />
    <path
       fill="#5a3a4a"
       d="m 198.018,623.015 c 4.892,1.048 9.669,2.317 14.477,3.686 9.07,2.94 18.042,6.175 26.902,9.699 6.644,2.655 13.312,5.839 20.135,7.977 1.304,0.207 2.435,0.143 3.392,1.091 -3.777,3.725 -5.146,7.011 -5.97,12.14 -0.958,1.998 -1.832,4.071 -3.444,5.647 l -0.133,-0.864 -0.075,-1.38 c 0.765,-5.261 1.93,-10.068 4.354,-14.818 -16.525,-8.089 -33.409,-13.186 -50.919,-18.618 -3.372,-0.98 -6.787,-1.846 -10.176,-2.765 0.68,-0.578 0.983,-1.051 1.457,-1.795 z"
       id="path127" />
    <path
       fill="#723d49"
       d="m 106.251,621.816 c 0.867,-1.971 1.957,-3.686 3.783,-4.905 6.6,-4.404 47.088,-1.813 55.289,-0.099 l -0.75,0.466 c 0.818,0.474 1.497,0.648 2.4,0.87 1.208,0.296 1.709,0.595 2.551,1.555 -9.843,-0.875 -52.437,-4.402 -58.785,0.415 -1.644,1.247 -2.658,4.095 -3.431,5.969 -0.057,-0.935 -0.073,-1.646 0.154,-2.568 0.192,-0.777 0.393,-1.542 0.563,-2.326 -0.729,0.1 -1.123,0.301 -1.774,0.623 z"
       id="path128" />
    <path
       fill="#7b2f3a"
       d="m 205.611,644.565 c 6.979,0.274 41.372,12.671 47.691,16.446 l 0.075,1.38 c -1.031,-0.286 -1.497,-0.148 -2.529,0.04 -9.818,-4.452 -19.196,-7.583 -29.706,-9.968 -5.345,1.71 -10.248,4.436 -15.224,6.991 -1.107,0.326 -1.736,0.235 -2.882,0.172 2.409,-1.772 11.835,-7.025 12.976,-8.643 l -0.361,-0.841 c -3.477,-2.02 -8.328,-2.739 -12.229,-3.756 l 1.745,-0.565 z"
       id="path129" />
    <path
       fill="#5a3a4a"
       d="m 165.323,616.812 c 5.241,0.557 10.965,1.143 16.085,2.355 l 0.836,2.938 c -4.267,-0.694 -8.524,-1.349 -12.72,-2.402 -0.842,-0.96 -1.343,-1.259 -2.551,-1.555 -0.903,-0.222 -1.582,-0.396 -2.4,-0.87 z"
       id="path130" />
    <path
       fill="#462938"
       d="m 181.408,619.167 c 5.532,1.258 11.124,2.407 16.61,3.848 -0.474,0.744 -0.777,1.217 -1.457,1.795 -4.636,-1.46 -9.515,-2.08 -14.317,-2.705 z"
       id="path131" />
    <path
       fill="#ca535c"
       d="m 262.924,645.468 c 5.017,-2.265 33.113,3.636 39.368,6.047 0.209,0.081 0.415,0.171 0.625,0.251 0.253,0.097 0.508,0.187 0.761,0.282 0.151,0.058 0.302,0.119 0.453,0.178 -5.816,3.655 -8.482,8.958 -10.005,15.507 -2.068,8.895 -4.472,28.864 -1.509,37.023 0.599,0.023 1.198,0.052 1.796,0.087 l 0.654,1.911 c 0.076,1.313 10e-4,1.385 -0.707,2.507 -6.049,3.367 -22.205,-9.176 -29.42,-9.016 l -1.965,-0.855 c -1.949,-1.573 -4.204,-2.626 -6.418,-3.774 -1.489,-3.574 -2.452,-7.364 -3.514,-11.083 -3.963,2.051 -8.336,3.598 -12.468,5.303 l -1.097,-2.81 c 4.515,-1.865 9.555,-3.66 13.616,-6.358 0.181,-1.097 -0.003,-2.149 -0.111,-3.25 -0.035,-2.43 0,-4.812 -0.478,-7.204 -0.273,-1.004 0.147,-2.127 0.414,-3.09 l 0.591,-3.869 c 1.612,-1.576 2.486,-3.649 3.444,-5.647 0.824,-5.129 2.193,-8.415 5.97,-12.14 z"
       id="path132" />
    <path
       fill="url(#gradient_1)"
       d="m 256.954,657.608 c -0.073,9.857 -2.553,27.9 4.491,35.439 3.359,3.594 25.451,14.191 29.889,14.009 0.261,-0.011 0.521,-0.041 0.782,-0.061 0.664,-0.918 0.489,-1.146 0.501,-2.239 0.599,0.023 1.198,0.052 1.796,0.087 l 0.654,1.911 c 0.076,1.313 10e-4,1.385 -0.707,2.507 -6.049,3.367 -22.205,-9.176 -29.42,-9.016 l -1.965,-0.855 c -1.949,-1.573 -4.204,-2.626 -6.418,-3.774 -1.489,-3.574 -2.452,-7.364 -3.514,-11.083 -3.963,2.051 -8.336,3.598 -12.468,5.303 l -1.097,-2.81 c 4.515,-1.865 9.555,-3.66 13.616,-6.358 0.181,-1.097 -0.003,-2.149 -0.111,-3.25 -0.035,-2.43 0,-4.812 -0.478,-7.204 -0.273,-1.004 0.147,-2.127 0.414,-3.09 l 0.591,-3.869 c 1.612,-1.576 2.486,-3.649 3.444,-5.647 z"
       id="path133"
       style="fill:url(#gradient_1)" />
    <path
       fill="#aa97a6"
       d="m 263.323,335.004 c -3.691,-5.655 -12.455,-21.244 -13.2,-27.327 l 0.351,-0.434 c 0.955,0.874 1.737,1.736 2.545,2.74 l 0.479,-0.375 c -0.928,-1.145 -2.496,-2.079 -2.574,-3.517 l 0.791,-0.827 c 2.261,-0.029 3.545,1.22 5.125,2.739 7.665,7.369 14.884,21.251 16.92,31.661 l 0.571,0.213 c -0.477,2.908 -3.42,25.435 -4.229,26.439 l -0.361,-0.411 c -0.794,3 -0.273,7.214 -2.963,9.064 -3.094,0.005 -8.646,-4.936 -10.842,-7.223 -0.32,-0.333 -0.715,-0.842 -0.989,-1.181 l 0.34,-0.164 c 3.753,2.126 7.094,5.218 10.437,7.935 -1.604,-2.388 -3.159,-4.174 -5.387,-6.031 -5.353,-3.924 -16.391,-11.355 -19.823,-16.536 2.807,-0.055 8.368,5.05 11.153,6.558 -2.201,-1.992 -4.654,-3.819 -6.932,-5.736 3.781,1.381 7.336,5.352 11.275,5.297 -2.653,-1.586 -5.398,-3.754 -7.54,-5.976 4.773,2.433 8.994,5.343 13.38,8.395 -3.571,-5.801 -9.285,-10.739 -13.972,-15.691 1.42,-0.216 1.998,-0.079 3.161,0.824 2.484,1.928 3.281,5.902 6.712,6.313 l 1.411,-0.832 c -2.999,-3.043 -5.794,-6.798 -9.356,-9.156 -0.149,-3.051 -5.702,-7.627 -6.994,-10.742 -0.639,-1.539 -0.411,-3.146 0.153,-4.665 l 2.099,-0.295 0.691,-0.727 c 0.889,0.969 1.759,1.956 2.61,2.96 l 0.317,-0.905 c -0.422,-2.487 -2.353,-3.83 -3.179,-6.085 -0.545,-1.488 -0.216,-2.411 0.264,-3.819 0.901,-0.536 1.402,-0.814 1.943,-1.753 0.122,-0.212 0.216,-0.439 0.324,-0.658 3.633,3.094 6.428,9.13 9.228,13.108 1.779,2.527 3.849,4.671 6.061,6.82 z"
       id="path134" />
    <path
       fill="#604850"
       d="m 249.806,341.765 c -0.149,-3.051 -5.702,-7.627 -6.994,-10.742 -0.639,-1.539 -0.411,-3.146 0.153,-4.665 l 2.099,-0.295 c 3.458,6.786 16.111,20.301 17.113,25.89 l -0.693,0.432 c -0.869,-0.435 -1.582,-0.832 -2.322,-1.464 -2.999,-3.043 -5.794,-6.798 -9.356,-9.156 z"
       id="path135" />
    <path
       fill="#5e555e"
       d="m 248.365,328.296 0.317,-0.905 c -0.422,-2.487 -2.353,-3.83 -3.179,-6.085 -0.545,-1.488 -0.216,-2.411 0.264,-3.819 0.901,-0.536 1.402,-0.814 1.943,-1.753 0.122,-0.212 0.216,-0.439 0.324,-0.658 0.037,0.276 0.068,0.554 0.112,0.83 0.823,5.183 13.198,24.928 13.195,25.082 -0.848,-0.465 -1.273,-0.928 -1.899,-1.632 -2.762,-3.105 -6.272,-4.894 -8.909,-8.302 -0.716,-0.925 -1.455,-1.831 -2.168,-2.758 z"
       id="path136" />
    <path
       fill="#ede9e4"
       d="m 479.868,332.82 c 2.541,0.2 6.219,-1.409 8.652,-2.169 8.56,-2.671 23.455,-8.302 32.425,-6.058 5.749,2.345 9.708,10.567 11.958,16.031 0.596,1.447 1.07,2.94 1.527,4.435 2.119,7.037 5.887,19.234 5.049,26.397 2.907,18.075 1.063,43.37 -1.664,61.558 -1.05,10.442 -2.927,21.068 -4.543,31.457 -2.34,17.909 -1.432,36.143 -3.954,54.02 -0.051,-0.036 -0.109,-0.063 -0.153,-0.106 -1.243,-1.189 -1.075,-2.473 -1.306,-4.12 1.643,-17.289 1.212,-34.608 3.826,-51.836 -0.151,-5.703 3.312,-23.985 4.598,-30.321 0.538,-8.482 1.936,-16.929 2.288,-25.423 0.346,-8.344 -0.483,-16.742 -0.108,-25.081 -0.836,-4.401 -0.874,-9.139 -1.351,-13.609 -0.783,-7.331 -2.31,-14.379 -4.31,-21.464 -2.646,-7.293 -5.643,-15.971 -12.715,-20.051 -17.17,-0.887 -32.812,7.166 -48.678,12.334 -0.583,-0.484 -0.598,-0.924 -0.843,-1.627 3.384,-1.061 6.26,-2.586 9.302,-4.367 z"
       id="path137" />
    <path
       fill="#ede9e4"
       d="m 404.857,373.288 0.65,-0.654 c 2.36,0.658 5.139,1.798 7.165,3.173 l 0.425,0.85 c -3.18,4.379 -7.366,8.667 -11.498,12.165 -3.375,10.816 -11.062,46.294 -10.063,57.174 l -1.222,1.372 c -1.157,-17.747 7.603,-57.132 12.865,-73.555 z"
       id="path138" />
    <path
       fill="#5a3a4a"
       d="m 404.857,373.288 0.65,-0.654 c 2.36,0.658 5.139,1.798 7.165,3.173 -3.353,3.778 -6.772,7.38 -10.808,10.439 0.765,-4.375 1.898,-8.657 2.993,-12.958 z"
       id="path139" />
    <path
       fill="#ede9e4"
       d="m 284.374,303.923 0.761,0.207 c -5.139,17.235 -9.506,34.954 -11.967,52.791 -1.708,12.385 -2.298,24.951 -4.123,37.304 -0.12,-1.74 -0.078,-3.552 -0.92,-5.118 -0.197,-7.323 1.445,-15.383 1.977,-22.791 0.809,-1.004 3.752,-23.531 4.229,-26.439 1.649,-8.255 5.865,-28.99 10.043,-35.954 z"
       id="path140" />
    <path
       fill="#f0edde"
       d="m 668.797,573.089 c 7.094,-6.778 14.227,-13.558 21.024,-20.636 7.564,-7.875 14.938,-16.38 23.283,-23.421 -9.225,13.057 -21.386,24.857 -32.75,36.054 -3.482,3.431 -7.326,6.626 -10.618,10.226 z"
       id="path141" />
    <path
       fill="#443a41"
       d="m 304.202,756.282 c 0.014,-0.05 0.02,-0.102 0.043,-0.148 0.643,-1.33 1.328,-1.475 2.667,-2.032 0.142,-0.059 0.285,-0.114 0.427,-0.171 l -1.753,-2.052 c 3.927,0.403 7.349,3.887 11.532,3.911 0.273,0.001 0.545,-0.018 0.818,-0.027 l 0.213,0.654 c 2.056,6.45 3.733,10.58 6.439,16.778 l -0.586,-0.524 c -2.878,-2.597 -13.288,-18.194 -15.744,-17.91 -1.431,0.166 -2.763,0.919 -4.056,1.521 z"
       id="path142" />
    <path
       fill="#ede9e4"
       d="m 269.78,954.461 c -3.516,-5.846 -4.272,-11.802 -2.709,-18.472 1.299,-5.541 4.396,-9.86 9.302,-12.763 3.01,-1.782 5.875,-2.387 9.266,-2.89 l 0.446,0.225 0.255,0.796 c -8.271,4.237 -13.686,1.674 -17.305,13.45 -2.231,7.26 -0.463,14.07 2.794,20.638 z"
       id="path143" />
    <path
       fill="#ede9e4"
       d="m 268.125,389.107 c 0.842,1.566 0.8,3.378 0.92,5.118 0.103,7.104 -0.852,14.395 -0.989,21.531 -0.107,5.561 0.536,11.413 0.235,16.905 -0.059,1.082 -0.271,1.747 -1.135,2.408 -2.181,-3.728 -0.063,-39.218 0.969,-45.962 z"
       id="path144" />
    <path
       fill="#b0a9b7"
       d="m 240.11,334.558 c 3.753,1.851 5.875,5.556 9.696,7.207 3.562,2.358 6.357,6.113 9.356,9.156 l -1.411,0.832 c -3.431,-0.411 -4.228,-4.385 -6.712,-6.313 -1.163,-0.903 -1.741,-1.04 -3.161,-0.824 -3.051,-2.348 -5.558,-6.888 -7.768,-10.058 z"
       id="path145" />
    <path
       fill="#ede9e4"
       d="m 476.951,819.605 c 0.729,0.746 1.389,1.294 1.791,2.274 -7.943,5.008 -14.988,11.288 -22.91,16.329 6.282,-6.989 13.843,-12.697 21.119,-18.603 z"
       id="path146" />
    <path
       fill="#f0edde"
       d="m 641.909,630.046 c 0.666,0.628 1.242,1.223 1.82,1.935 0.534,0.656 0.944,0.881 1.535,1.41 0.096,0.086 0.161,0.201 0.241,0.302 -4.887,3.598 -9.519,7.507 -14.472,11.023 3.533,-4.964 7.41,-9.64 10.876,-14.67 z"
       id="path147" />
    <path
       fill="#f0edde"
       d="m 314.104,363.345 c 5.889,-3.092 19.481,-3.484 26.335,-3.013 l 1.689,1.766 c -9.498,-0.365 -18.616,1.187 -28.024,1.247 z"
       id="path148" />
    <path
       fill="#ede9e4"
       d="m 882.604,71.7704 c -0.853,0.237 -0.542,0.1765 -1.28,0.3023 -5.387,0.9193 -11.484,3.52 -16.982,2.4992 l 0.101,-0.6683 -0.339,0.428 0.943,-0.6999 0.229,1.1993 0.098,-1.3126 0.582,1.3903 -0.137,-1.5253 c 5.236,-1.1538 10.843,-2.9351 16.203,-2.9784 z"
       id="path149" />
    <path
       fill="#ede9e4"
       d="m 495.783,796.706 0.19,1.029 c -1.331,1.593 -2.838,2.985 -4.338,4.414 1.675,-0.046 1.462,-1.12 2.955,-0.363 -4.51,3.358 -9.087,6.624 -13.73,9.796 4.625,-5.285 9.765,-10.117 14.923,-14.876 z"
       id="path150" />
    <path
       fill="#f0edde"
       d="m 529.318,518.491 c -0.625,5.579 -1.516,11.576 -3.26,16.927 -0.352,-6.837 1.187,-14.308 1.801,-21.153 0.231,1.647 0.063,2.931 1.306,4.12 0.044,0.043 0.102,0.07 0.153,0.106 z"
       id="path151" />
    <path
       fill="#723d49"
       d="m 262.975,699.39 1.965,0.855 c 0.258,1.514 0.494,2.017 -0.111,3.462 -1.477,0.156 -2.269,-0.625 -3.533,-1.335 l 0.194,-0.327 c -1.082,-0.418 -1.406,-0.071 -2.482,0.26 z"
       id="path152" />
    <path
       fill="#5e555e"
       d="m 391.536,445.996 c 1.672,0.386 1.741,0.303 2.767,1.653 l 0.08,1.369 -0.849,0.943 c -1.272,-0.002 -1.35,-0.089 -2.401,-0.829 l -0.819,-1.764 z"
       id="path153" />
    <path
       fill="#F3E1CD"
       d="m 379.801,499.207 c 9.249,-0.802 17.915,1.453 25.374,7.016 7.893,5.887 14.184,14.904 15.482,24.817 1.367,10.442 -1.506,21.649 -8.061,29.922 -7.508,9.476 -17.691,14.037 -29.472,15.452 -10.842,0.247 -21.09,-3.068 -29.681,-9.774 -7.428,-5.798 -12.284,-13.963 -13.313,-23.373 -1.115,-10.199 1.499,-20.944 8.095,-28.927 7.641,-9.248 19.896,-14.032 31.576,-15.133 z"
       id="path154"
       style="fill:#ffffff;fill-opacity:1" />
    <path
       fill="#5a3a4a"
       d="m 357.809,517.43 c 0.981,0.06 2.01,0.117 2.931,0.489 2.886,1.167 4.729,4.244 5.725,7.044 2.936,8.257 1.973,20.325 -1.769,28.189 -1.702,3.579 -3.19,4.872 -6.885,6.188 -0.298,-0.042 -0.596,-0.078 -0.893,-0.125 -2.985,-0.478 -5.364,-2.465 -6.985,-4.95 -3.838,-5.885 -3.471,-14.995 -1.953,-21.611 1.469,-6.4 4.171,-11.659 9.829,-15.224 z"
       id="path155" />
    <path
       fill="#F3E1CD"
       d="m 254.073,480.739 c 5.558,7.377 8.136,16.138 6.873,25.381 -1.483,10.848 -7.321,23.294 -16.319,29.905 -5.82,4.277 -13.465,6.777 -20.683,5.511 -8.251,-1.447 -16.191,-7.565 -20.815,-14.4 -4.997,-7.386 -6.616,-16.276 -4.89,-24.999 1.887,-9.54 7.641,-19.483 15.845,-24.934 6.834,-4.541 15.126,-5.065 22.924,-3.228 5.835,1.374 10.021,5.338 15.09,8.246 z"
       id="path156"
       style="fill:#ffffff;fill-opacity:1" />
    <path
       fill="#5a3a4a"
       d="m 217.539,486.467 c 1.074,0.066 2.084,0.08 3.076,0.558 2.098,1.012 3.538,3.271 4.39,5.354 3.054,7.456 1.42,23.191 -1.955,30.343 -1.57,3.323 -4.31,4.106 -7.536,5.233 -2.732,-1.362 -4.402,-3.022 -5.887,-5.7 -3.853,-6.948 -3.7,-16.049 -1.353,-23.459 1.657,-5.232 4.25,-9.775 9.265,-12.329 z"
       id="path157" />
    <path
       fill="#ca535c"
       d="m 530.783,537.403 0.472,0.517 c 0.987,6.114 3.15,12.093 3.755,18.249 2.265,23.078 -7.603,47.133 -18.286,67.154 -3.419,6.461 -7.448,12.581 -12.03,18.276 -8.48,10.488 -30.815,32.229 -43.437,36.034 -4.362,-2.197 -8.713,-4.248 -13.221,-6.135 -3.789,-1.425 -7.456,-2.915 -11.087,-4.709 11.323,-5.769 22.386,-13.648 32.354,-21.516 15.335,-12.106 25.739,-25.188 36.439,-41.301 4.05,-6.099 8.122,-12.196 11.262,-18.829 6.897,-14.569 11.896,-31.706 13.779,-47.74 z"
       id="path158" />
    <path
       fill="#aa97a6"
       d="m 439.73,408.884 c 4.683,-7.438 11.012,-13.402 17.3,-19.457 15.564,-14.982 30.485,-27.272 50.289,-36.243 l -0.945,-0.554 c 2.331,-1.375 5.554,-1.945 8.172,-2.685 l -0.147,0.955 c -2.788,3.91 -6.254,4.738 -10.141,7.214 3.158,-0.51 8.775,-3.153 11.737,-2.636 -3.903,3.106 -9.046,2.418 -12.767,4.946 1.609,0.382 3.411,0.141 5.059,0.059 0.651,1.423 1.4,2.59 0.997,4.194 -0.217,0.161 -0.431,0.327 -0.652,0.482 -5.413,3.783 -21.688,6.664 -22.025,7.538 1.479,0.032 2.931,0.104 4.406,0.233 4.678,0.409 18.609,-3.477 21.006,-2.513 l -1.101,0.632 c 0.527,0.725 1.036,1.075 1.031,1.993 -3.503,2.949 -9.94,3.566 -11.729,8.237 3.683,-1.435 7.042,-3.343 10.479,-5.282 -6.554,7.42 -16.758,10.418 -26.465,10.981 -1.445,0.074 -2.892,0.102 -4.339,0.083 -0.25,0.041 -0.5,0.087 -0.751,0.123 -1.199,0.176 -2.328,-0.005 -3.524,-0.101 -0.848,-0.069 -0.512,-0.088 -1.339,0.173 5.967,3.24 16.359,3.63 23.131,4.246 -2.453,0.305 -8.937,0.466 -10.481,1.967 -1.899,1.033 -7.409,0.534 -8.008,2.423 -0.205,0.02 -0.409,0.053 -0.615,0.062 -0.972,0.039 -1.205,-0.249 -2.05,-0.549 -0.154,-0.054 -0.321,-0.064 -0.482,-0.096 -0.336,0.836 -0.614,1.583 -0.765,2.473 l 1.748,1.306 c -1.259,-0.09 -2.511,-0.374 -3.615,0.362 0.955,1.775 4.691,2.553 6.555,3.113 8.211,2.469 13.827,3.242 22.027,4.841 l 8.206,0.131 c -4.871,1.996 -10.892,3.407 -16.159,3.533 l -0.475,0.079 c -2.127,0.337 -6.874,-0.186 -8.251,1.43 1.886,2.221 5.842,2.246 8.465,3.123 -2.774,0.218 -5.308,-0.516 -8.046,-0.816 2.209,1.513 5.276,1.351 7.658,2.507 4.311,0.234 8.407,0.248 12.492,1.772 l -8.846,0.431 c -1.762,0.223 -6.608,0.035 -7.961,0.909 l 0.318,0.415 c 0.532,1.321 1.572,2.035 2.888,2.548 0.554,0.216 1.13,0.389 1.699,0.561 -4.791,0.052 -9.439,-1.604 -13.866,-3.259 -3.974,-1.177 -7.161,-2.349 -10.779,-4.413 3.058,2.811 6.117,5.839 9.508,8.242 3.924,2.781 8.247,4.914 12.06,7.868 l -0.261,1.175 c -0.47,1.581 -0.965,1.149 -2.106,2.118 3.535,2.557 7.12,5.19 10.111,8.38 -2.364,0.121 -16.096,-11.074 -17.609,-11.382 -1.339,-1.05 -2.692,-2.082 -4.058,-3.098 l -0.317,0.367 c 0.381,0.937 0.675,1.537 0.568,2.576 -0.022,0.214 -0.076,0.424 -0.114,0.637 -1.435,-0.936 -2.874,-1.776 -4.022,-3.068 l 0.389,-0.627 c -0.631,-0.478 -0.321,-0.315 -1.086,-0.594 -9.853,-3.586 -22.792,-14.285 -32.402,-20.065 z"
       id="path159" />
    <path
       fill="#b0a9b7"
       d="m 500.22,381.279 c 3.683,-1.435 7.042,-3.343 10.479,-5.282 -6.554,7.42 -16.758,10.418 -26.465,10.981 -1.445,0.074 -2.892,0.102 -4.339,0.083 2.655,-2.271 11.189,-2.775 14.932,-4.161 2.025,-0.296 3.591,-0.628 5.393,-1.621 z"
       id="path160" />
    <path
       fill="#ede9e4"
       d="m 509.932,407.535 c -4.871,1.996 -10.892,3.407 -16.159,3.533 -1.437,0.019 -2.79,0.144 -4.184,-0.246 l 0.616,-2.866 c 3.468,-0.883 7.139,0.574 10.925,-0.393 0.199,-0.051 0.398,-0.106 0.596,-0.159 z"
       id="path161" />
    <path
       fill="#5e555e"
       d="m 505.436,374.528 0.312,-0.276 -0.188,-0.501 c -6.263,0.518 -12.283,1.947 -18.434,3.094 l 0.06,0.041 -0.326,-0.482 c 1.953,-0.415 3.714,-1.366 5.682,-1.766 6.195,-1.258 12.199,-2.018 18.376,-3.589 0.527,0.725 1.036,1.075 1.031,1.993 -2.143,0.05 -4.619,1.901 -6.513,1.486 z"
       id="path162" />
    <path
       fill="#5e555e"
       d="m 479.652,426.693 c 3.662,2.145 7.175,4.616 10.724,6.947 -0.47,1.581 -0.965,1.149 -2.106,2.118 -3.533,-2.324 -6.023,-5.795 -8.618,-9.065 z"
       id="path163" />
    <path
       fill="#ede9e4"
       d="m 493.124,417.391 c 4.311,0.234 8.407,0.248 12.492,1.772 l -8.846,0.431 c -1.236,-0.128 -2.469,-0.309 -3.701,-0.468 0.124,-1.156 0.106,-0.577 0.055,-1.735 z"
       id="path164" />
    <path
       fill="#ca535c"
       d="m 260.299,563.024 1.743,2.464 c 3.746,6.665 8.285,10.559 14.132,15.373 5.113,3.9 10.566,7.334 16.293,10.259 3.187,1.643 8.628,3.118 11.236,5.304 -4.581,-0.112 -8.572,-1.278 -12.702,-3.18 l -1.901,1.115 c 3.238,2.072 7.28,3.062 10.882,4.404 -3.199,5.583 -6.003,11.207 -11.56,14.846 0.957,0.235 1.407,0.395 2.114,1.09 1.697,-0.622 3.081,-1.761 4.527,-2.818 l 1.054,1.657 c -2.551,2.686 -5.898,4.481 -9.548,5.119 -8.388,1.473 -19.13,-1.192 -26.014,-6.173 -7.66,-5.543 -14.701,-16.598 -15.87,-26.015 -0.144,-1.158 -0.404,-2.47 0.341,-3.398 l 0.838,1.262 0.733,-0.198 c -0.373,-1.033 -0.408,-1.829 -0.408,-2.922 l -0.889,-0.719 c -0.611,-0.11 -0.312,-0.098 -0.975,-0.029 -3.914,0.408 -7.975,0.101 -11.419,-1.935 l 0.148,-0.763 c 8.439,-0.443 14.754,-0.639 22.918,-3.357 0.641,-1.455 0.84,-2.812 2.278,-3.555 l 0.471,0.31 c 1.164,-0.266 0.747,-0.13 1.799,-0.518 0.234,-0.086 0.466,-0.177 0.699,-0.266 l 0.536,-1.751 c -0.585,-1.858 -1.05,-3.701 -1.456,-5.606 z"
       id="path165" />
    <path
       fill="#443a41"
       d="m 260.299,563.024 1.743,2.464 c 3.746,6.665 8.285,10.559 14.132,15.373 5.113,3.9 10.566,7.334 16.293,10.259 3.187,1.643 8.628,3.118 11.236,5.304 -4.581,-0.112 -8.572,-1.278 -12.702,-3.18 l -1.901,1.115 c -7.235,-3.661 -21.885,-12.693 -25.959,-19.337 -5.577,3.407 -10.589,4.835 -16.952,6.191 l -0.889,-0.719 c -0.611,-0.11 -0.312,-0.098 -0.975,-0.029 -3.914,0.408 -7.975,0.101 -11.419,-1.935 l 0.148,-0.763 c 8.439,-0.443 14.754,-0.639 22.918,-3.357 0.641,-1.455 0.84,-2.812 2.278,-3.555 l 0.471,0.31 c 1.164,-0.266 0.747,-0.13 1.799,-0.518 0.234,-0.086 0.466,-0.177 0.699,-0.266 l 0.536,-1.751 c -0.585,-1.858 -1.05,-3.701 -1.456,-5.606 z"
       id="path166" />
    <path
       fill="#f0edde"
       d="m 260.299,563.024 1.743,2.464 c 3.746,6.665 8.285,10.559 14.132,15.373 5.113,3.9 10.566,7.334 16.293,10.259 3.187,1.643 8.628,3.118 11.236,5.304 -4.581,-0.112 -8.572,-1.278 -12.702,-3.18 -5.079,-3.831 -10.846,-6.702 -15.963,-10.541 -5.255,-3.505 -10.368,-8.424 -13.283,-14.073 -0.585,-1.858 -1.05,-3.701 -1.456,-5.606 z"
       id="path167" />
    <path
       fill="#ede9e4"
       d="m 255.972,574.41 c 0.641,-1.455 0.84,-2.812 2.278,-3.555 l 0.471,0.31 c 1.164,-0.266 0.747,-0.13 1.799,-0.518 0.234,-0.086 0.466,-0.177 0.699,-0.266 -0.153,2.017 -0.318,3.411 -1.86,4.834 -3.899,3.598 -9.72,2.849 -14.059,5.279 -0.611,-0.11 -0.312,-0.098 -0.975,-0.029 -3.914,0.408 -7.975,0.101 -11.419,-1.935 l 0.148,-0.763 c 8.439,-0.443 14.754,-0.639 22.918,-3.357 z"
       id="path168" />
    <path
       fill="#f0edde"
       d="m 296.117,613.538 c -2.551,2.686 -5.898,4.481 -9.548,5.119 -8.388,1.473 -19.13,-1.192 -26.014,-6.173 -7.66,-5.543 -14.701,-16.598 -15.87,-26.015 -0.144,-1.158 -0.404,-2.47 0.341,-3.398 l 0.838,1.262 0.733,-0.198 c 3.275,7.476 5.99,14.492 11.476,20.694 5.597,5.264 11.054,7.26 18.28,9.427 4.187,0.346 7.984,0.655 12.069,-0.647 0.957,0.235 1.407,0.395 2.114,1.09 1.697,-0.622 3.081,-1.761 4.527,-2.818 z"
       id="path169" />
    <path
       fill="#443a41"
       d="m 258.073,604.829 c 5.597,5.264 11.054,7.26 18.28,9.427 l -1.139,1.889 c -7.053,-0.901 -12.999,-3.495 -17.903,-8.784 0.358,-0.751 0.529,-1.726 0.762,-2.532 z"
       id="path170" />
    <path
       fill="#443a41"
       d="m 245.864,584.333 0.733,-0.198 c 3.275,7.476 5.99,14.492 11.476,20.694 -0.233,0.806 -0.404,1.781 -0.762,2.532 -5.963,-5.424 -9.667,-15.382 -11.447,-23.028 z"
       id="path171" />
    <path
       fill="#462938"
       d="m 288.422,613.609 c 0.957,0.235 1.407,0.395 2.114,1.09 -5.084,2.007 -9.987,1.904 -15.322,1.446 l 1.139,-1.889 c 4.187,0.346 7.984,0.655 12.069,-0.647 z"
       id="path172" />
    <path
       fill="#ca535c"
       d="m 328.458,733.202 c -4.158,-3.875 -7.114,-9.331 -10.7,-13.758 -2.905,-3.587 -6.584,-6.904 -9.219,-10.665 -1.792,-2.559 -1.11,-4.333 -4.178,-6.162 -0.136,-0.081 -0.274,-0.157 -0.411,-0.236 l 0.319,-0.547 1.171,0.011 c 1.674,0.946 4.668,3.626 5.214,5.508 0.06,0.21 0.105,0.425 0.158,0.637 10.809,10.665 23.59,19.501 34.671,30.006 4.686,3.888 9.759,8.363 13.501,13.162 -2.604,1.599 -4.639,2.564 -7.684,2.983 -0.434,0.187 -0.661,0.318 -1.174,0.358 -2.299,0.18 -4.75,-1.431 -6.567,-2.647 -5.48,-3.667 -13.745,-12.056 -15.101,-18.65 z"
       id="path173" />
    <path
       fill="#91424d"
       d="m 328.458,733.202 c -4.158,-3.875 -7.114,-9.331 -10.7,-13.758 -2.905,-3.587 -6.584,-6.904 -9.219,-10.665 -1.792,-2.559 -1.11,-4.333 -4.178,-6.162 -0.136,-0.081 -0.274,-0.157 -0.411,-0.236 l 0.319,-0.547 1.171,0.011 c 1.674,0.946 4.668,3.626 5.214,5.508 0.06,0.21 0.105,0.425 0.158,0.637 l -1.796,-1.393 -0.165,0.458 c 5.705,9.016 17.464,20.381 26.197,26.255 l -1.985,0.451 c -1.602,-1.36 -3.11,-2.676 -4.952,-3.712 l -0.315,0.528 0.967,1.698 c 9.538,6.012 5.023,17.034 22.537,21.866 -0.434,0.187 -0.661,0.318 -1.174,0.358 -2.299,0.18 -4.75,-1.431 -6.567,-2.647 -5.48,-3.667 -13.745,-12.056 -15.101,-18.65 z"
       id="path174" />
    <path
       fill="#91424d"
       d="m 335.048,733.31 c 1.809,1.362 4.177,2.792 5.507,4.636 2.008,1.057 3.986,2.067 5.835,3.391 0.75,0.871 2.95,1.966 3.972,2.728 l -0.188,0.495 c -3.539,-0.179 -7.657,-2.23 -10.843,-3.75 l -0.633,-0.006 c -2.202,-1.464 -3.707,-5.01 -5.635,-7.043 z"
       id="path175" />
    <path
       fill="#ca535c"
       d="m 258.982,560.363 c -2.568,-3.107 -6.016,-7.245 -6.479,-11.355 -0.143,-1.267 0.156,-2.549 1.129,-3.441 1.1,-1.01 2.692,-1.34 4.136,-1.391 6.51,-0.232 13.45,2.35 18.26,6.625 0.153,1.8 -0.123,3.348 -0.45,5.116 -4.483,3.232 -8.995,6.423 -13.536,9.571 l -1.743,-2.464 c -0.542,-0.78 -0.908,-1.797 -1.317,-2.661 z"
       id="path176" />
    <path
       fill="#723d49"
       d="m 276.028,550.801 c 0.153,1.8 -0.123,3.348 -0.45,5.116 -4.483,3.232 -8.995,6.423 -13.536,9.571 l -1.743,-2.464 c -0.542,-0.78 -0.908,-1.797 -1.317,-2.661 1.149,0.353 2.047,0.596 3.259,0.327 4.367,-0.967 11.622,-6.069 13.787,-9.889 z"
       id="path177" />
    <path
       fill="#ede9e4"
       d="m 238.345,471.072 -0.422,-0.161 c -7.787,-2.871 -16.282,-3.094 -23.887,0.513 -9.017,4.276 -17.485,16.876 -20.015,26.231 -0.86,3.179 -0.377,6.708 -1.49,9.697 -0.169,-0.259 -0.37,-0.499 -0.507,-0.776 -1.127,-2.294 -0.616,-8.683 0.369,-10.963 0.511,-1.181 0.972,-2.373 1.458,-3.564 4.295,-10.515 10.586,-19.714 21.446,-24.159 8.051,-3.296 16.38,-3 24.354,0.304 6.227,3.376 9.992,7.053 14.422,12.545 l -1.975,1.482 c -3.166,-4.938 -8.617,-8.531 -13.753,-11.149 z"
       id="path178" />
    <path
       fill="#b0a9b7"
       d="m 240.379,363.733 c 9.786,1.666 16.144,5.909 23.747,12.019 -7.035,0.807 -13.964,2.292 -20.909,3.651 -0.826,-0.462 -1.648,-0.943 -2.409,-1.507 -1.841,-1.367 -5.257,-4.224 -5.572,-6.456 2.907,-0.698 9.055,3.082 12.4,3.665 0.601,0.105 0.354,0.157 0.824,-0.172 -2.58,-4.074 -5.898,-6.723 -8.081,-11.2 z"
       id="path179" />
    <path
       fill="#ede9e4"
       d="m 341.605,510.872 1.257,0.273 c 0.227,-0.158 0.45,-0.323 0.681,-0.474 0.982,-0.64 0.562,-0.458 1.709,-0.615 -6.881,8.507 -11.583,18.418 -10.384,29.622 1.149,10.739 6.732,19.61 12.833,28.225 -9.94,-8.564 -14.093,-16.886 -15.848,-29.844 -0.884,-0.702 -1.646,-1.365 -2.046,-2.461 -0.456,-1.252 -0.203,-2.784 0.297,-3.958 l 0.79,-0.267 0.98,1.569 c 0.921,-7.486 4.035,-16.773 9.731,-22.07 z"
       id="path180" />
    <path
       fill="#72575d"
       d="m 331.853,538.059 c -0.884,-0.702 -1.646,-1.365 -2.046,-2.461 -0.456,-1.252 -0.203,-2.784 0.297,-3.958 l 0.79,-0.267 0.98,1.569 c -0.005,1.704 0.016,3.413 -0.021,5.117 z"
       id="path181" />
    <path
       fill="#b0a9b7"
       d="m 486.931,393.469 c 4.541,-0.848 16.226,-1.66 21.154,-1.753 l -0.254,-0.564 -0.058,0.765 c -3.403,0.826 -7.297,1.622 -10.486,3.043 l 0.178,0.59 c -0.124,0.086 -0.246,0.177 -0.372,0.259 -1.504,0.979 -2.654,1.046 -3.605,2.775 l -3.128,0.73 c -0.029,0.01 -0.057,0.024 -0.087,0.03 -1.849,0.386 -4.479,1.186 -6.162,0.248 -0.644,-0.359 -1.345,-0.86 -2.066,-1.041 -0.985,-0.248 -3.153,-0.44 -4.015,0.114 1.218,0.107 2.435,0.229 3.651,0.366 l 0.098,0.552 c -1.697,0.704 -3.336,-0.031 -5.02,-0.495 l -1.748,-1.306 c 0.151,-0.89 0.429,-1.637 0.765,-2.473 0.161,0.032 0.328,0.042 0.482,0.096 0.845,0.3 1.078,0.588 2.05,0.549 0.206,-0.009 0.41,-0.042 0.615,-0.062 0.599,-1.889 6.109,-1.39 8.008,-2.423 z"
       id="path182" />
    <path
       fill="#ae898c"
       d="m 476.759,399.088 -1.748,-1.306 c 0.151,-0.89 0.429,-1.637 0.765,-2.473 0.161,0.032 0.328,0.042 0.482,0.096 0.845,0.3 1.078,0.588 2.05,0.549 0.206,-0.009 0.41,-0.042 0.615,-0.062 2.805,0.214 6.054,-0.049 8.667,0.954 0.297,0.509 0.591,1.021 0.882,1.533 0.712,-0.915 0.515,-1.023 0.504,-2.131 l -0.223,0.409 1.053,-0.936 c 0.164,1.153 0.328,2.031 0.072,3.185 l 0.482,0.408 c -0.029,0.01 -0.057,0.024 -0.087,0.03 -1.849,0.386 -4.479,1.186 -6.162,0.248 -0.644,-0.359 -1.345,-0.86 -2.066,-1.041 -0.985,-0.248 -3.153,-0.44 -4.015,0.114 1.218,0.107 2.435,0.229 3.651,0.366 l 0.098,0.552 c -1.697,0.704 -3.336,-0.031 -5.02,-0.495 z"
       id="path183" />
    <path
       fill="#f0edde"
       d="m 345.453,506.72 c 8.583,-8.599 24.811,-12.238 36.533,-12.354 1.536,-0.015 3.852,0.263 5.163,1.093 l -0.838,-0.039 c -14.043,-0.591 -27.593,4.13 -38.771,12.48 -0.729,0.943 -1.237,1.577 -2.288,2.156 -1.147,0.157 -0.727,-0.025 -1.709,0.615 -0.231,0.151 -0.454,0.316 -0.681,0.474 l -1.257,-0.273 c 1.204,-1.582 2.306,-2.891 3.848,-4.152 z"
       id="path184" />
    <path
       fill="#ede9e4"
       d="m 345.453,506.72 c 1.182,-0.364 2.321,-0.712 3.44,-1.25 -0.453,0.792 -0.991,1.595 -1.353,2.43 -0.729,0.943 -1.237,1.577 -2.288,2.156 -1.147,0.157 -0.727,-0.025 -1.709,0.615 -0.231,0.151 -0.454,0.316 -0.681,0.474 l -1.257,-0.273 c 1.204,-1.582 2.306,-2.891 3.848,-4.152 z"
       id="path185" />
    <path
       fill="#ede9e4"
       d="m 606.8,294.19 c 7.091,-1.523 27.176,1.418 33.201,5.338 0.606,0.394 1.11,0.719 1.294,1.417 -3.949,-0.396 -7.467,-1.941 -11.237,-3.083 -13.667,-3.687 -26.197,-1.348 -39.922,-0.331 5.429,-1.903 10.993,-2.587 16.664,-3.341 z"
       id="path186" />
    <path
       fill="#f0edde"
       d="m 587.693,288.063 c -6.943,0.966 -14.02,1.181 -20.818,3.044 -4.495,1.231 -8.701,3.592 -13.147,4.69 l -0.029,-0.301 c 5.471,-4.903 22.859,-8.606 30.042,-8.996 l -0.326,0.773 c 1.271,0.842 2.772,0.675 4.278,0.79 z"
       id="path187" />
    <path
       fill="#ede9e4"
       d="m 202.697,810.889 c 1.99,0.157 4.178,1.551 6.059,2.274 7.887,3.032 12.684,2.975 20.958,2.556 l 0.109,0.747 c -2.787,1.158 -5.724,1.55 -8.726,1.542 -6.831,-0.017 -13.526,-2.211 -18.4,-7.119 z"
       id="path188" />
    <path
       fill="#ede9e4"
       d="m 583.741,286.5 c 9.949,-0.804 20.039,-0.426 29.342,3.478 -8.533,-1.131 -16.823,-1.404 -25.39,-1.915 -1.506,-0.115 -3.007,0.052 -4.278,-0.79 z"
       id="path189" />
    <path
       fill="#ede9e4"
       d="m 476.851,433.238 c 0.038,-0.213 0.092,-0.423 0.114,-0.637 0.107,-1.039 -0.187,-1.639 -0.568,-2.576 l 0.317,-0.367 c 1.366,1.016 2.719,2.048 4.058,3.098 4.145,5.002 8.995,9.461 13.207,14.45 -5.729,-4.485 -11.028,-10.034 -17.128,-13.968 z"
       id="path190" />
    <path
       fill="#ede9e4"
       d="m 304.102,597.786 c 0.368,4.067 -2.122,9.162 -4.548,12.241 -0.999,1.269 -2.184,2.49 -3.437,3.511 l -1.054,-1.657 c 4.052,-4.022 5.099,-11.416 9.039,-14.095 z"
       id="path191" />
    <path
       fill="#ede9e4"
       d="m 212.278,770.993 c 1.714,0.39 3.351,1.504 4.912,2.301 5.745,2.934 9.747,2.864 15.894,1.593 l 0.649,0.619 c -1.42,1.743 -3.296,2.063 -5.439,2.244 -6.206,0.524 -11.503,-2.911 -16.016,-6.757 z"
       id="path192" />
    <path
       fill="#ede9e4"
       d="m 489.127,420.918 c 4.893,0.373 9.794,0.624 14.699,0.755 l 0.275,-0.25 -0.071,0.596 1.52,-0.118 c -2.462,1.96 -8.674,1.362 -11.836,2.126 -0.569,-0.172 -1.145,-0.345 -1.699,-0.561 -1.316,-0.513 -2.356,-1.227 -2.888,-2.548 z"
       id="path193" />
    <path
       fill="#b0a9b7"
       d="m 508.287,360.483 c 2.43,-0.34 4.663,-1.456 7.054,-1.694 l 0.603,0.962 c -0.488,1.584 -0.81,3.102 -1.972,4.345 -1.042,0.386 -1.164,0.61 -2.281,0.331 -0.961,-0.239 -0.581,-0.199 -1.238,-0.227 l -1.169,0.477 c 0.403,-1.604 -0.346,-2.771 -0.997,-4.194 z"
       id="path194" />
    <path
       fill="#604850"
       d="m 515.944,359.751 c -0.488,1.584 -0.81,3.102 -1.972,4.345 -1.042,0.386 -1.164,0.61 -2.281,0.331 -0.961,-0.239 -0.581,-0.199 -1.238,-0.227 1.631,-1.67 3.638,-3.033 5.491,-4.449 z"
       id="path195" />
    <path
       fill="#ede9e4"
       d="m 497.465,395.55 c 4.481,-1.473 9.285,-2.233 13.901,-3.198 -5.619,3.153 -11.429,5.516 -17.878,6.232 0.951,-1.729 2.101,-1.796 3.605,-2.775 0.126,-0.082 0.248,-0.173 0.372,-0.259 z"
       id="path196" />
    <path
       fill="#5a3a4a"
       d="m 146.403,539.745 c -5.981,-2.82 -11.601,-6.714 -17.36,-9.983 -6.921,-3.928 -14.167,-7.431 -21.299,-10.953 -24.0212,-11.861 -49.0067,-19.521 -75.332,-24.341 -5.0636,-0.927 -10.3438,-0.779 -15.3153,-1.752 -1.0064,-0.197 -1.3488,-0.144 -1.9389,-1.025 0.1327,-0.053 0.261,-0.118 0.3982,-0.158 3.9312,-1.135 12.9596,0.465 17.1483,1.068 41.6502,5.997 79.0627,25.572 114.8537,46.565 z"
       id="path220" />
    <path
       fill="#443a41"
       d="m 144.451,514.133 c -17.715,-16.694 -41.249,-31.264 -62.276,-43.32 -6.1492,-3.526 -13.3512,-5.611 -19.1605,-9.647 l 0.2629,-0.451 c 17.0105,1.272 68.4596,39.786 82.0546,52.701 z"
       id="path221" />
    <path
       fill="#5a3a4a"
       d="m 470.566,337.187 c 3.732,-8.298 9.628,-16.66 17.976,-20.7 -2.453,5.386 -6.175,10.282 -8.198,15.838 l -0.476,0.495 c -3.042,1.781 -5.918,3.306 -9.302,4.367 z"
       id="path222" />
    <path
       fill="#443a41"
       d="m 618.362,148.44 c 0.193,-11.396 5.656,-23.664 12.077,-32.833 -1.94,5.995 -4.523,11.782 -6.584,17.74 -1.616,4.671 -2.787,9.516 -4.011,14.303 l -0.802,0.981 z"
       id="path225" />
    <path
       fill="#443a41"
       d="m 609.533,149.851 c 0.803,-3.309 1.976,-8.54 4.768,-10.769 0.221,-0.177 0.496,-0.275 0.744,-0.412 -0.227,3.705 -2.313,7.698 -3.108,11.424 z"
       id="path228" />
    <path
       fill="#443a41"
       d="m 609.533,149.851 2.404,0.243 c -0.112,2.038 0.102,8.283 -1.015,9.723 -1.41,-3.46 -1.472,-6.295 -1.389,-9.966 z"
       id="path229" />
  </g>
</svg>
